<svg width="92" height="92" viewBox="0 0 92 92" fill="none" xmlns="http://www.w3.org/2000/svg">
<path d="M46 92C71.4051 92 92 71.4051 92 46C92 20.5949 71.4051 0 46 0C20.5949 0 0 20.5949 0 46C0 71.4051 20.5949 92 46 92Z" fill="#ABCD48"/>
<path d="M45.9981 22.2844C53.6989 22.2844 54.6529 22.2844 57.7196 22.4207C60.5137 22.557 62.0811 23.034 63.1033 23.4429C64.4663 23.9881 65.4203 24.6014 66.4426 25.6237C67.4648 26.6459 68.0781 27.5999 68.6233 28.9629C69.0322 29.9851 69.5092 31.4844 69.6455 34.3466C69.7818 37.4133 69.7818 38.2992 69.7818 46.0681C69.7818 53.837 69.7818 54.7229 69.6455 57.7896C69.5092 60.5837 69.0322 62.1511 68.6233 63.1733C68.0781 64.5362 67.4648 65.4903 66.4426 66.5125C65.4203 67.5348 64.4663 68.1481 63.1033 68.6933C62.0811 69.1022 60.5818 69.5792 57.7196 69.7155C54.6529 69.8518 53.767 69.8518 45.9981 69.8518C38.2974 69.8518 37.3433 69.8518 34.2766 69.7155C31.4826 69.5792 29.9152 69.1022 28.8929 68.6933C27.53 68.1481 26.5759 67.5348 25.5537 66.5125C24.5315 65.4903 23.9181 64.5362 23.3729 63.1733C22.964 62.1511 22.487 60.6518 22.3507 57.7896C22.2144 54.7229 22.2144 53.837 22.2144 46.0681C22.2144 38.2992 22.2144 37.4133 22.3507 34.3466C22.487 31.5525 22.964 29.9851 23.3729 28.9629C23.9181 27.5999 24.5315 26.6459 25.5537 25.6237C26.5759 24.6014 27.53 23.9881 28.8929 23.4429C29.9152 23.034 31.4144 22.557 34.2766 22.4207C37.3433 22.2844 38.2974 22.2844 45.9981 22.2844ZM45.9981 17.037C38.1611 17.037 37.1389 17.037 34.0722 17.2414C31.0055 17.3777 28.8929 17.8548 27.0529 18.6044C25.1448 19.354 23.5092 20.3081 21.9418 21.9437C20.3063 23.5792 19.3522 25.1466 18.6026 27.0548C17.8529 28.8948 17.3759 31.0074 17.2396 34.074C17.0352 37.1407 17.0352 38.1629 17.0352 45.9999C17.0352 53.837 17.0352 54.8592 17.2396 57.9259C17.3759 60.9925 17.8529 63.1051 18.6026 64.9451C19.3522 66.8533 20.3063 68.4888 21.9418 70.0562C23.5774 71.6918 25.1448 72.6459 27.0529 73.3955C28.8929 74.1451 31.0055 74.6222 34.0722 74.7585C37.1389 74.8948 38.1611 74.9629 45.9981 74.9629C53.8352 74.9629 54.8574 74.9629 57.924 74.7585C60.9907 74.6222 63.1033 74.1451 64.9433 73.3955C66.8515 72.6459 68.487 71.6918 70.0544 70.0562C71.69 68.4207 72.644 66.8533 73.3937 64.9451C74.1433 63.1051 74.6203 60.9925 74.7566 57.9259C74.8929 54.8592 74.9611 53.837 74.9611 45.9999C74.9611 38.1629 74.9611 37.1407 74.7566 34.074C74.6203 31.0074 74.1433 28.8948 73.3937 27.0548C72.644 25.1466 71.69 23.5111 70.0544 21.9437C68.4189 20.3081 66.8515 19.354 64.9433 18.6044C63.1033 17.8548 60.9907 17.3777 57.924 17.2414C54.8574 17.037 53.8352 17.037 45.9981 17.037Z" fill="#F9FFF8"/>
<path d="M45.9969 31.1437C37.751 31.1437 31.1406 37.8222 31.1406 46C31.1406 54.1777 37.8191 60.8563 45.9969 60.8563C54.2428 60.8563 60.8532 54.1777 60.8532 46C60.8532 37.8222 54.2428 31.1437 45.9969 31.1437ZM45.9969 55.677C40.6814 55.677 36.3199 51.3837 36.3199 46C36.3199 40.6163 40.6132 36.3229 45.9969 36.3229C51.3806 36.3229 55.674 40.6163 55.674 46C55.674 51.3837 51.3125 55.677 45.9969 55.677Z" fill="#F9FFF8"/>
<path d="M61.4677 34.0059C63.3872 34.0059 64.9433 32.4499 64.9433 30.5304C64.9433 28.6109 63.3872 27.0548 61.4677 27.0548C59.5482 27.0548 57.9922 28.6109 57.9922 30.5304C57.9922 32.4499 59.5482 34.0059 61.4677 34.0059Z" fill="#F9FFF8"/>
</svg>
