<svg width="39" height="39" viewBox="0 0 39 39" fill="none" xmlns="http://www.w3.org/2000/svg">
<g clip-path="url(#clip0_921_20858)">
<path d="M39 19.5C39 8.72444 30.2756 0 19.5 0C8.72445 0 0 8.72444 0 19.5C0 29.2356 7.13556 37.2956 16.4667 38.7689V25.1333H11.4978V19.5H16.4667V15.1956C16.4667 10.3133 19.3556 7.62667 23.8044 7.62667C25.9422 7.62667 28.1667 8.00222 28.1667 8.00222V12.7978H25.7111C23.2844 12.7978 22.5333 14.3 22.5333 15.8311V19.5H27.9356L27.0689 25.1333H22.5333V38.7689C31.8644 37.2956 39 29.2356 39 19.5Z" fill="#F5FFE6"/>
<path d="M27.098 25.1336L27.9647 19.5003H22.5336V15.8314C22.5336 14.3003 23.2847 12.7981 25.7114 12.7981H28.1669V8.00251C28.1669 8.00251 25.9425 7.62695 23.8047 7.62695C19.3558 7.62695 16.4669 10.3136 16.4669 15.1958V19.5003H11.498V25.1336H16.4669V38.7692C17.4492 38.9136 18.4892 39.0003 19.5003 39.0003C20.5403 39.0003 21.5514 38.9136 22.5336 38.7692V25.1336H27.098Z" fill="#03180A"/>
</g>
<defs>
<clipPath id="clip0_921_20858">
<rect width="39" height="39" fill="white"/>
</clipPath>
</defs>
</svg>
