<svg width="39" height="39" viewBox="0 0 39 39" fill="none" xmlns="http://www.w3.org/2000/svg">
<g clip-path="url(#clip0_498_17592)">
<path d="M19.5 39C30.2696 39 39 30.2696 39 19.5C39 8.73045 30.2696 0 19.5 0C8.73045 0 0 8.73045 0 19.5C0 30.2696 8.73045 39 19.5 39Z" fill="#F5FFE6"/>
<path d="M19.5 9.44667C22.7645 9.44667 23.1689 9.44667 24.4689 9.50445C25.6533 9.56223 26.3178 9.76445 26.7511 9.93778C27.3289 10.1689 27.7333 10.4289 28.1667 10.8622C28.6 11.2956 28.86 11.7 29.0911 12.2778C29.2644 12.7111 29.4667 13.3467 29.5244 14.56C29.5822 15.86 29.5822 16.2356 29.5822 19.5289C29.5822 22.8222 29.5822 23.1978 29.5244 24.4978C29.4667 25.6822 29.2644 26.3467 29.0911 26.78C28.86 27.3578 28.6 27.7622 28.1667 28.1956C27.7333 28.6289 27.3289 28.8889 26.7511 29.12C26.3178 29.2933 25.6822 29.4956 24.4689 29.5533C23.1689 29.6111 22.7933 29.6111 19.5 29.6111C16.2356 29.6111 15.8311 29.6111 14.5311 29.5533C13.3467 29.4956 12.6822 29.2933 12.2489 29.12C11.6711 28.8889 11.2667 28.6289 10.8333 28.1956C10.4 27.7622 10.14 27.3578 9.9089 26.78C9.73556 26.3467 9.53334 25.7111 9.47556 24.4978C9.41778 23.1978 9.41778 22.8222 9.41778 19.5289C9.41778 16.2356 9.41778 15.86 9.47556 14.56C9.53334 13.3756 9.73556 12.7111 9.9089 12.2778C10.14 11.7 10.4 11.2956 10.8333 10.8622C11.2667 10.4289 11.6711 10.1689 12.2489 9.93778C12.6822 9.76445 13.3178 9.56223 14.5311 9.50445C15.8311 9.44667 16.2356 9.44667 19.5 9.44667ZM19.5 7.22223C16.1778 7.22223 15.7445 7.22223 14.4445 7.3089C13.1445 7.36667 12.2489 7.5689 11.4689 7.88667C10.66 8.20445 9.96667 8.6089 9.30223 9.30223C8.6089 9.99556 8.20445 10.66 7.88667 11.4689C7.5689 12.2489 7.36667 13.1445 7.3089 14.4445C7.22223 15.7445 7.22223 16.1778 7.22223 19.5C7.22223 22.8222 7.22223 23.2556 7.3089 24.5556C7.36667 25.8556 7.5689 26.7511 7.88667 27.5311C8.20445 28.34 8.6089 29.0333 9.30223 29.6978C9.99556 30.3911 10.66 30.7956 11.4689 31.1133C12.2489 31.4311 13.1445 31.6333 14.4445 31.6911C15.7445 31.7489 16.1778 31.7778 19.5 31.7778C22.8222 31.7778 23.2556 31.7778 24.5556 31.6911C25.8556 31.6333 26.7511 31.4311 27.5311 31.1133C28.34 30.7956 29.0333 30.3911 29.6978 29.6978C30.3911 29.0044 30.7956 28.34 31.1133 27.5311C31.4311 26.7511 31.6333 25.8556 31.6911 24.5556C31.7489 23.2556 31.7778 22.8222 31.7778 19.5C31.7778 16.1778 31.7778 15.7445 31.6911 14.4445C31.6333 13.1445 31.4311 12.2489 31.1133 11.4689C30.7956 10.66 30.3911 9.96667 29.6978 9.30223C29.0044 8.6089 28.34 8.20445 27.5311 7.88667C26.7511 7.5689 25.8556 7.36667 24.5556 7.3089C23.2556 7.22223 22.8222 7.22223 19.5 7.22223Z" fill="#03180A"/>
<path d="M19.5 13.2022C16.0045 13.2022 13.2022 16.0334 13.2022 19.5C13.2022 22.9667 16.0334 25.7978 19.5 25.7978C22.9956 25.7978 25.7978 22.9667 25.7978 19.5C25.7978 16.0334 22.9956 13.2022 19.5 13.2022ZM19.5 23.6022C17.2467 23.6022 15.3978 21.7822 15.3978 19.5C15.3978 17.2178 17.2178 15.3978 19.5 15.3978C21.7822 15.3978 23.6022 17.2178 23.6022 19.5C23.6022 21.7822 21.7534 23.6022 19.5 23.6022Z" fill="#03180A"/>
<path d="M26.0578 14.4156C26.8715 14.4156 27.5311 13.7559 27.5311 12.9422C27.5311 12.1285 26.8715 11.4689 26.0578 11.4689C25.2441 11.4689 24.5844 12.1285 24.5844 12.9422C24.5844 13.7559 25.2441 14.4156 26.0578 14.4156Z" fill="#03180A"/>
</g>
<defs>
<clipPath id="clip0_498_17592">
<rect width="39" height="39" fill="white"/>
</clipPath>
</defs>
</svg>
