<svg width="39" height="39" viewBox="0 0 39 39" fill="none" xmlns="http://www.w3.org/2000/svg">
<g clip-path="url(#clip0_498_16825)">
<path d="M19.5 39C30.2696 39 39 30.2696 39 19.5C39 8.73045 30.2696 0 19.5 0C8.73045 0 0 8.73045 0 19.5C0 30.2696 8.73045 39 19.5 39Z" fill="#F5FFE6"/>
<path d="M15.5711 30.7378C25.1045 30.7378 30.3045 22.8511 30.3045 16.0044C30.3045 15.7733 30.3045 15.5711 30.2756 15.34C31.2867 14.6178 32.1533 13.6933 32.8467 12.6533C31.9222 13.0578 30.9111 13.3467 29.8711 13.4622C30.94 12.8267 31.7489 11.8155 32.1533 10.6022C31.1422 11.2089 30.0445 11.6133 28.86 11.8733C27.9067 10.8622 26.5778 10.2267 25.0756 10.2267C22.2156 10.2267 19.9045 12.5378 19.9045 15.3978C19.9045 15.8022 19.9622 16.2067 20.0489 16.5822C15.7445 16.38 11.9311 14.3 9.3889 11.18C8.95557 11.9311 8.69557 12.8267 8.69557 13.78C8.69557 15.5711 9.62001 17.16 11.0067 18.0844C10.1689 18.0555 9.36001 17.8244 8.66668 17.4489C8.66668 17.4778 8.66668 17.4778 8.66668 17.5067C8.66668 20.02 10.4578 22.1 12.8267 22.5911C12.3933 22.7067 11.9311 22.7644 11.4689 22.7644C11.1222 22.7644 10.8045 22.7355 10.4867 22.6778C11.1511 24.7289 13.0578 26.2311 15.3111 26.26C13.5489 27.6467 11.2956 28.4844 8.8689 28.4844C8.46446 28.4844 8.03112 28.4555 7.62668 28.4267C9.9089 29.8711 12.6245 30.7378 15.5711 30.7378Z" fill="#03180A"/>
</g>
<defs>
<clipPath id="clip0_498_16825">
<rect width="39" height="39" fill="white"/>
</clipPath>
</defs>
</svg>
