<svg width="39" height="39" viewBox="0 0 39 39" fill="none" xmlns="http://www.w3.org/2000/svg">
<g clip-path="url(#clip0_498_17588)">
<path d="M39 19.5C39 8.72444 30.2756 0 19.5 0C8.72445 0 0 8.72444 0 19.5C0 29.2356 7.13556 37.2956 16.4667 38.7689V25.1333H11.4978V19.5H16.4667V15.1956C16.4667 10.3133 19.3556 7.62667 23.8044 7.62667C25.9422 7.62667 28.1667 8.00222 28.1667 8.00222V12.7978H25.7111C23.2844 12.7978 22.5333 14.3 22.5333 15.8311V19.5H27.9356L27.0689 25.1333H22.5333V38.7689C31.8644 37.2956 39 29.2356 39 19.5Z" fill="#F5FFE6"/>
<path d="M27.0978 25.1333L27.9644 19.5H22.5333V15.8311C22.5333 14.3 23.2844 12.7978 25.7111 12.7978H28.1667V8.00223C28.1667 8.00223 25.9422 7.62668 23.8044 7.62668C19.3556 7.62668 16.4667 10.3133 16.4667 15.1956V19.5H11.4978V25.1333H16.4667V38.7689C17.4489 38.9133 18.4889 39 19.5 39C20.54 39 21.5511 38.9133 22.5333 38.7689V25.1333H27.0978Z" fill="#03180A"/>
</g>
<defs>
<clipPath id="clip0_498_17588">
<rect width="39" height="39" fill="white"/>
</clipPath>
</defs>
</svg>
