<svg width="39" height="39" viewBox="0 0 39 39" fill="none" xmlns="http://www.w3.org/2000/svg">
<g clip-path="url(#clip0_921_20862)">
<path d="M19.5 39C30.2696 39 39 30.2696 39 19.5C39 8.73045 30.2696 0 19.5 0C8.73045 0 0 8.73045 0 19.5C0 30.2696 8.73045 39 19.5 39Z" fill="#F5FFE6"/>
<path d="M19.5004 9.4471C22.7649 9.4471 23.1693 9.4471 24.4693 9.50488C25.6538 9.56266 26.3182 9.76488 26.7515 9.93821C27.3293 10.1693 27.7338 10.4293 28.1671 10.8627C28.6004 11.296 28.8604 11.7004 29.0915 12.2782C29.2649 12.7115 29.4671 13.3471 29.5249 14.5604C29.5827 15.8604 29.5827 16.236 29.5827 19.5293C29.5827 22.8227 29.5827 23.1982 29.5249 24.4982C29.4671 25.6827 29.2649 26.3471 29.0915 26.7804C28.8604 27.3582 28.6004 27.7627 28.1671 28.196C27.7338 28.6293 27.3293 28.8893 26.7515 29.1204C26.3182 29.2938 25.6827 29.496 24.4693 29.5538C23.1693 29.6115 22.7938 29.6115 19.5004 29.6115C16.236 29.6115 15.8315 29.6115 14.5315 29.5538C13.3471 29.496 12.6827 29.2938 12.2493 29.1204C11.6715 28.8893 11.2671 28.6293 10.8338 28.196C10.4004 27.7627 10.1404 27.3582 9.90932 26.7804C9.73599 26.3471 9.53377 25.7115 9.47599 24.4982C9.41821 23.1982 9.41821 22.8227 9.41821 19.5293C9.41821 16.236 9.41821 15.8604 9.47599 14.5604C9.53377 13.376 9.73599 12.7115 9.90932 12.2782C10.1404 11.7004 10.4004 11.296 10.8338 10.8627C11.2671 10.4293 11.6715 10.1693 12.2493 9.93821C12.6827 9.76488 13.3182 9.56266 14.5315 9.50488C15.8315 9.4471 16.236 9.4471 19.5004 9.4471ZM19.5004 7.22266C16.1782 7.22266 15.7449 7.22266 14.4449 7.30932C13.1449 7.3671 12.2493 7.56932 11.4693 7.8871C10.6604 8.20488 9.9671 8.60932 9.30266 9.30266C8.60932 9.99599 8.20488 10.6604 7.8871 11.4693C7.56932 12.2493 7.3671 13.1449 7.30932 14.4449C7.22266 15.7449 7.22266 16.1782 7.22266 19.5004C7.22266 22.8227 7.22266 23.256 7.30932 24.556C7.3671 25.856 7.56932 26.7515 7.8871 27.5315C8.20488 28.3404 8.60932 29.0338 9.30266 29.6982C9.99599 30.3915 10.6604 30.796 11.4693 31.1138C12.2493 31.4315 13.1449 31.6338 14.4449 31.6915C15.7449 31.7493 16.1782 31.7782 19.5004 31.7782C22.8227 31.7782 23.256 31.7782 24.556 31.6915C25.856 31.6338 26.7515 31.4315 27.5315 31.1138C28.3404 30.796 29.0338 30.3915 29.6982 29.6982C30.3915 29.0049 30.796 28.3404 31.1138 27.5315C31.4315 26.7515 31.6338 25.856 31.6915 24.556C31.7493 23.256 31.7782 22.8227 31.7782 19.5004C31.7782 16.1782 31.7782 15.7449 31.6915 14.4449C31.6338 13.1449 31.4315 12.2493 31.1138 11.4693C30.796 10.6604 30.3915 9.9671 29.6982 9.30266C29.0049 8.60932 28.3404 8.20488 27.5315 7.8871C26.7515 7.56932 25.856 7.3671 24.556 7.30932C23.256 7.22266 22.8227 7.22266 19.5004 7.22266Z" fill="#03180A"/>
<path d="M19.5009 13.2031C16.0053 13.2031 13.2031 16.0342 13.2031 19.5009C13.2031 22.9676 16.0342 25.7987 19.5009 25.7987C22.9965 25.7987 25.7987 22.9676 25.7987 19.5009C25.7987 16.0342 22.9965 13.2031 19.5009 13.2031ZM19.5009 23.6031C17.2476 23.6031 15.3987 21.7831 15.3987 19.5009C15.3987 17.2187 17.2187 15.3987 19.5009 15.3987C21.7831 15.3987 23.6031 17.2187 23.6031 19.5009C23.6031 21.7831 21.7542 23.6031 19.5009 23.6031Z" fill="#03180A"/>
<path d="M26.0583 14.4164C26.872 14.4164 27.5316 13.7568 27.5316 12.9431C27.5316 12.1294 26.872 11.4697 26.0583 11.4697C25.2446 11.4697 24.585 12.1294 24.585 12.9431C24.585 13.7568 25.2446 14.4164 26.0583 14.4164Z" fill="#03180A"/>
</g>
<defs>
<clipPath id="clip0_921_20862">
<rect width="39" height="39" fill="white"/>
</clipPath>
</defs>
</svg>
