<svg width="39" height="39" viewBox="0 0 39 39" fill="none" xmlns="http://www.w3.org/2000/svg">
<g clip-path="url(#clip0_921_20852)">
<path d="M19.5 39C30.2696 39 39 30.2696 39 19.5C39 8.73045 30.2696 0 19.5 0C8.73045 0 0 8.73045 0 19.5C0 30.2696 8.73045 39 19.5 39Z" fill="#F5FFE6"/>
<path d="M15.5714 30.7377C25.1047 30.7377 30.3047 22.851 30.3047 16.0043C30.3047 15.7732 30.3047 15.571 30.2758 15.3399C31.287 14.6177 32.1536 13.6932 32.847 12.6532C31.9225 13.0577 30.9114 13.3466 29.8714 13.4621C30.9403 12.8266 31.7492 11.8155 32.1536 10.6021C31.1425 11.2088 30.0447 11.6132 28.8603 11.8732C27.907 10.8621 26.5781 10.2266 25.0758 10.2266C22.2158 10.2266 19.9047 12.5377 19.9047 15.3977C19.9047 15.8021 19.9625 16.2066 20.0492 16.5821C15.7447 16.3799 11.9314 14.2999 9.38918 11.1799C8.95584 11.931 8.69584 12.8266 8.69584 13.7799C8.69584 15.571 9.62029 17.1599 11.007 18.0843C10.1692 18.0555 9.36029 17.8243 8.66695 17.4488C8.66695 17.4777 8.66695 17.4777 8.66695 17.5066C8.66695 20.0199 10.4581 22.0999 12.827 22.591C12.3936 22.7066 11.9314 22.7643 11.4692 22.7643C11.1225 22.7643 10.8047 22.7355 10.487 22.6777C11.1514 24.7288 13.0581 26.231 15.3114 26.2599C13.5492 27.6466 11.2958 28.4843 8.86918 28.4843C8.46473 28.4843 8.0314 28.4555 7.62695 28.4266C9.90918 29.871 12.6247 30.7377 15.5714 30.7377Z" fill="#03180A"/>
</g>
<defs>
<clipPath id="clip0_921_20852">
<rect width="39" height="39" fill="white"/>
</clipPath>
</defs>
</svg>
