<svg width="25" height="25" viewBox="0 0 25 25" fill="none" xmlns="http://www.w3.org/2000/svg">
<g clip-path="url(#clip0_343_12786)">
<path d="M17.9429 6.48331L19.7949 8.77128C19.7949 8.77128 20.3504 9.46737 20.2069 10.155C20.0452 10.9228 19.6374 10.9692 19.6374 10.9692C19.6374 10.9692 19.6641 11.5655 19.3126 12.0732C18.961 12.5808 18.7936 12.8213 17.5168 13.208C16.2399 13.5947 13.9365 14.0292 13.9365 14.0292L13.343 16.3327C13.343 16.3327 13.1841 16.9022 12.4768 17.1989C11.7694 17.4957 11.2168 17.4183 11.2168 17.4183C11.2168 17.4183 10.9243 18.2269 9.95255 18.4519C9.11161 18.6474 8.44083 18.2241 8.44083 18.2241C8.44083 18.2241 7.73349 18.6572 6.82224 18.4519C5.76474 18.2142 5.52286 17.5632 5.52286 17.5632C5.52286 17.5632 4.65661 17.4717 4.08708 16.6505C3.51755 15.8292 3.92817 14.8955 3.92817 14.8955C3.92817 14.8955 3.42333 14.1474 3.56396 13.2994C3.69052 12.5316 3.99568 12.27 3.99568 12.27L5.82099 10.996C5.82099 10.996 5.04614 10.6767 4.77192 9.30847C4.49771 7.94019 5.18255 7.25675 5.18255 7.25675C5.18255 7.25675 4.91396 6.48472 5.36536 5.79706C5.79849 5.13612 6.41442 5.45534 6.71114 5.15862C7.07677 4.793 9.15099 4.56519 9.15099 4.56519L11.543 6.55222L17.9429 6.48331Z" fill="#2F7C31"/>
<path d="M17.0625 4.18825C17.0625 4.18825 16.3468 3.40356 15.3863 3.47247C14.4258 3.54137 14.2515 4.12075 14.2515 4.12075C14.2515 4.12075 13.6622 4.02372 13.2924 4.18825C12.5358 4.52575 12.616 4.91809 12.3868 4.89137C12.1575 4.86465 12.1575 3.89153 11.0888 3.55262C10.02 3.21372 9.43927 3.7284 9.21005 3.71434C8.98083 3.70028 8.69677 3.42887 7.88536 3.68762C7.15552 3.92106 6.99942 4.40481 6.96567 4.55247C6.9263 4.73106 6.9263 4.93075 6.70974 5.15997C6.49317 5.38919 6.7252 6.22028 7.03599 6.55778C7.34677 6.89528 7.95286 6.93044 7.95286 6.93044C7.95286 6.93044 7.81083 8.09762 8.78114 8.73887C9.46317 9.18887 10.1972 9.01169 10.1972 9.01169C10.1972 9.01169 10.9805 9.6895 11.8594 9.40544C12.7383 9.12137 12.8325 8.75715 12.346 8.35075C11.8594 7.94575 11.6429 7.16106 12.2236 7.012C12.8044 6.86294 13.3993 7.147 13.6018 7.78262C13.8043 8.41825 13.8183 8.97231 14.4807 9.44481C15.143 9.91731 15.6296 9.76965 16.2919 9.94544C16.9543 10.1212 17.4 10.6893 17.9541 10.702C18.5082 10.7161 18.9413 10.3097 19.2254 10.3504C19.5094 10.3912 20.0902 10.5262 20.0902 10.5262C20.0902 10.5262 20.3475 10.0397 20.1844 9.44481C20.0213 8.84997 19.7935 8.76981 19.7935 8.76981C19.7935 8.76981 21.1111 7.49575 19.9004 5.55231C18.8063 3.7959 17.0625 4.18825 17.0625 4.18825ZM9.79083 13.2979C9.79083 13.2979 9.27755 13.0814 8.93864 12.5006C8.60114 11.9198 8.42536 11.4867 7.88396 11.2026C7.34396 10.9186 6.73505 10.9453 5.95036 10.9861C5.16567 11.0268 4.96739 11.2659 4.77474 11.4586C4.39646 11.8368 3.99005 12.27 3.99005 12.27C3.99005 12.27 4.65239 12.3234 5.00395 12.8648C5.35552 13.4062 5.57208 14.1487 5.57208 14.1487C5.57208 14.1487 6.04458 14.3245 6.5452 14.5945C7.04583 14.8645 8.15395 15.5817 8.8838 15.3918C9.61364 15.202 9.99192 14.3639 9.99192 14.2697C9.99333 14.1768 9.79083 13.2979 9.79083 13.2979Z" fill="#2F7C31"/>
<path d="M16.0303 14.5074C16.0641 14.6086 19.5853 18.57 19.5853 18.57C19.5853 18.57 19.162 19.2127 18.7894 19.5178C18.4167 19.823 17.812 20.2786 17.4281 20.3827C17.0119 20.4952 16.6913 20.6189 16.3186 20.1282C15.946 19.6374 15.6591 18.9947 14.6424 17.9105C13.6256 16.8263 12.8986 16.1667 12.0872 15.7772C11.2758 15.3877 10.1072 15.1177 9.80205 15.0839C9.49689 15.0502 9.10876 15.0164 9.10876 15.0164C9.10876 15.0164 8.87955 14.5538 8.95689 14.1867C9.04267 13.7775 9.61642 13.5947 9.61642 13.5947L12.5274 14.018L12.1828 13.9027C12.1828 13.9027 12.3192 13.7016 12.1378 13.4414C11.9803 13.215 11.2575 12.3403 11.0199 12.0183C10.7822 11.6963 10.2999 11.0719 10.3097 10.9707C10.3266 10.785 10.7667 10.5474 10.9017 10.463C11.0367 10.3786 11.325 10.2605 11.325 10.2605L14.4399 13.4907L14.6086 13.3388C14.6086 13.3388 14.8111 13.3289 14.9306 13.0167C15.015 12.7974 15.0488 12.1364 15.1163 11.5613C15.1585 11.2013 15.1838 10.7822 15.1838 10.7822C15.1838 10.7822 15.6745 10.5628 15.9966 10.5966C16.3186 10.6303 16.6899 10.9861 16.6899 10.9861L16.0303 14.5074Z" fill="#9FB525"/>
<path d="M17.2158 11.0873C17.2664 11.2223 17.1821 11.8327 17.1821 12.6441C17.1821 13.4555 17.2285 14.2078 17.6222 14.6916C18.1299 15.3173 18.9933 16.1977 19.6528 16.7897C19.9383 17.0456 20.1267 17.1455 20.1436 17.213C20.1605 17.2805 20.0213 17.8964 19.8891 18.1608C19.65 18.6389 19.2113 19.0734 19.2113 19.0734C19.2113 19.0734 17.4521 17.0948 16.7067 16.3327C15.9614 15.5705 15.5564 15.0628 15.3863 15.233C15.2175 15.4017 15.7786 16.0612 16.1822 16.5197C16.7911 17.213 18.4983 19.7428 18.4983 19.7428C18.4983 19.7428 18.4041 19.8412 18.2128 19.972C18.0441 20.0887 17.9119 20.1492 17.9119 20.1492C17.9119 20.1492 17.0119 18.6853 15.7589 17.3648C14.506 16.0444 13.7958 15.4355 12.9324 15.1472C12.0689 14.8589 8.9555 14.1825 8.9555 14.1825C8.9555 14.1825 9.0905 13.7086 9.17488 13.5061C9.25925 13.3036 9.44628 13.0659 9.44628 13.0659C9.44628 13.0659 11.003 13.4723 11.2744 13.5567C11.5458 13.6411 13.0857 13.8281 13.1532 13.658C13.2207 13.4892 12.121 12.1181 11.7989 11.6948C11.4769 11.2716 10.8947 10.4587 10.8947 10.4587C10.8947 10.4587 11.2392 10.2225 11.6625 10.1212C12.0858 10.02 12.2377 10.1044 12.2377 10.1044C12.2377 10.1044 13.2699 11.4923 13.575 11.8987C13.8802 12.3052 14.4722 13.1855 15.0136 13.3373C15.555 13.4892 15.69 13.3542 15.7589 12.9478C15.8264 12.5414 15.9966 10.5952 15.9966 10.5952C15.9966 10.5952 16.538 10.6289 16.7419 10.7302C16.9458 10.8314 17.1652 10.9523 17.2158 11.0873Z" fill="#B7D118"/>
<path d="M6.52127 13.5651C6.52127 13.5651 6.20626 12.9956 5.93486 13.2333C5.66205 13.4709 6.18095 14.2204 6.29205 14.2458C6.40314 14.2711 7.26939 13.9828 7.14283 13.6594C7.01345 13.3359 6.52127 13.5651 6.52127 13.5651ZM14.7028 7.85013C14.3794 7.83888 13.7002 7.17513 13.987 6.8306C14.2191 6.55217 14.7028 7.09217 14.7028 7.09217C14.7028 7.09217 15.2147 6.56482 15.4172 6.81935C15.7055 7.18779 14.9405 7.85857 14.7028 7.85013ZM16.5056 8.51388C16.5056 8.51388 16.2244 7.93592 15.9024 8.18201C15.5789 8.4281 16.14 9.26201 16.3102 9.31263C16.4803 9.36326 17.3944 8.84013 17.1525 8.47029C16.9556 8.17357 16.5056 8.51388 16.5056 8.51388ZM18.9806 7.98654C18.8794 8.00342 18.1552 7.5956 18.3605 7.23842C18.5658 6.88123 18.9806 7.33263 18.9806 7.33263C18.9806 7.33263 19.373 6.98529 19.5417 7.19623C19.8131 7.53654 19.1325 7.96123 18.9806 7.98654ZM18.8527 9.16076C18.8527 9.16076 18.5799 8.59967 18.2916 8.81201C18.0019 9.02435 18.5039 9.87513 18.5813 9.90888C18.6572 9.94263 19.6795 9.65435 19.4574 9.24513C19.3027 8.96529 18.8527 9.16076 18.8527 9.16076ZM9.86111 8.52795C9.63752 8.43092 9.26345 7.67435 9.61361 7.52107C9.89626 7.39732 10.0439 7.85857 10.0439 7.85857C10.0439 7.85857 10.3575 7.58295 10.5727 7.80935C10.9031 8.1567 9.99611 8.58701 9.86111 8.52795ZM8.27205 5.58467C8.27205 5.58467 8.25376 5.2556 8.00064 5.27248C7.7222 5.29217 7.75876 5.97842 7.97111 6.10779C8.18345 6.23717 8.88376 5.86592 8.72486 5.60717C8.62361 5.44263 8.25376 5.55513 8.27205 5.58467Z" fill="#2F7C31"/>
</g>
<defs>
<clipPath id="clip0_343_12786">
<rect width="18" height="18" fill="white" transform="matrix(-1 0 0 1 21 3)"/>
</clipPath>
</defs>
</svg>
