<svg width="18" height="18" viewBox="0 0 18 18" fill="none" xmlns="http://www.w3.org/2000/svg">
<g clip-path="url(#clip0_498_26755)">
<path d="M5.70247 1.66951C8.94247 1.03201 9.92897 2.30201 11.53 1.71151C13.131 1.12101 11.5765 3.12151 11.1575 3.46551C10.7375 3.80951 7.08697 5.87001 5.50397 5.11451C3.92097 4.35901 3.91297 2.02151 5.70247 1.66951Z" fill="#5C913B"/>
<path d="M7.50052 8.00003C7.4228 8.00019 7.34612 7.98219 7.27659 7.94746C7.20705 7.91274 7.14659 7.86226 7.10002 7.80003C6.75652 7.34203 6.44602 6.82253 6.11752 6.27203C4.98352 4.37453 3.69802 2.22303 0.391522 1.48803C0.326422 1.4748 0.26461 1.44874 0.209697 1.41135C0.154785 1.37396 0.107874 1.32601 0.071703 1.27029C0.0355324 1.21457 0.010828 1.1522 -0.000966904 1.08682C-0.0127618 1.02145 -0.0114109 0.954376 0.00300711 0.889529C0.0174251 0.824681 0.0446209 0.763357 0.083006 0.709138C0.121391 0.654919 0.170196 0.608893 0.226569 0.573748C0.282942 0.538604 0.345754 0.515045 0.411334 0.504449C0.476915 0.493852 0.543949 0.496431 0.608522 0.512033C4.33552 1.34003 5.79952 3.79053 6.97602 5.75953C7.29102 6.28653 7.58802 6.78403 7.90002 7.20003C7.95571 7.27428 7.98963 7.36257 7.99799 7.45501C8.00635 7.54744 7.98881 7.64038 7.94735 7.72342C7.90588 7.80645 7.84212 7.87631 7.76321 7.92516C7.68429 7.97402 7.59334 7.99994 7.50052 8.00003Z" fill="#77B255"/>
<path d="M17.15 15.7669C17.151 15.7584 17.1485 15.7529 17.1485 15.7454C18.5355 13.0779 18.472 8.18895 15.4755 5.19195C12.575 2.29195 8.6355 2.28145 6.092 3.15845C5.3025 3.46545 4.6335 3.19145 4.1845 3.64095C3.744 4.08145 4.009 5.00045 3.8275 5.55045C2.243 8.15145 2.125 12.0629 5.1715 15.1089C7.6525 17.5899 10.3905 18.5299 15.1615 17.5354C15.1625 17.5344 15.164 17.5349 15.1655 17.5344C15.7395 17.4254 16.6405 17.7959 16.9485 17.4874C17.491 16.9449 17.103 16.3084 17.15 15.7669Z" fill="#FFCC4D"/>
<path d="M4.10401 3.2915C4.10401 3.2915 1.96901 2.9965 0.675509 5.591C-0.617991 8.185 0.966509 10.1535 0.820509 11.9175C0.674009 13.6825 1.60351 12.55 2.13101 11.695C2.65851 10.84 4.24601 9.2475 4.60001 7.0605C4.95351 4.8725 4.56501 3.8315 4.10401 3.2915Z" fill="#77B255"/>
</g>
<defs>
<clipPath id="clip0_498_26755">
<rect width="18" height="18" fill="white"/>
</clipPath>
</defs>
</svg>
