<svg width="25" height="25" viewBox="0 0 25 25" fill="none" xmlns="http://www.w3.org/2000/svg">
<path d="M6.30188 4.21777H9.17738C9.54812 4.21755 9.91526 4.29041 10.2578 4.43218C10.6004 4.57395 10.9116 4.78186 11.1738 5.04401C11.4359 5.30616 11.6438 5.61741 11.7856 5.95996C11.9274 6.30252 12.0002 6.66966 12 7.0404H9.12563C8.7548 7.04077 8.38754 6.96802 8.04485 6.82631C7.70216 6.68461 7.39078 6.47673 7.12851 6.21456C6.86624 5.9524 6.65824 5.6411 6.5164 5.29847C6.37455 4.95584 6.30166 4.5886 6.30188 4.21777Z" fill="#00D26A"/>
<path d="M12 7.0404C11.9998 6.66966 12.0726 6.30252 12.2144 5.95996C12.3562 5.61741 12.5641 5.30616 12.8262 5.04401C13.0884 4.78186 13.3996 4.57395 13.7422 4.43218C14.0847 4.29041 14.4519 4.21755 14.8226 4.21777H17.6981C17.6983 4.58851 17.6255 4.95565 17.4837 5.29821C17.3419 5.64077 17.134 5.95202 16.8719 6.21417C16.6097 6.47632 16.2985 6.68422 15.9559 6.82599C15.6134 6.96776 15.2462 7.04062 14.8755 7.0404H12Z" fill="#00D26A"/>
<path d="M9.84506 6.36987C6.67087 6.36987 4.125 8.97256 4.125 11.9679C4.125 14.5976 5.63137 15.8902 7.13437 17.2402C8.48381 18.4529 10.0864 19.8294 12 19.8294C13.9136 19.8294 15.5162 18.4529 16.8656 17.2402C18.3686 15.8902 19.875 14.5976 19.875 11.9679C19.875 8.97256 17.3291 6.36987 14.1549 6.36987C13.4237 6.36987 12.6233 6.49194 12.0135 6.7355C11.2412 6.46494 10.6174 6.36987 9.84506 6.36987Z" fill="#FF822D"/>
<path d="M13.7196 6.38391C14.5782 6.97907 15.2797 7.77355 15.7639 8.69925C16.2482 9.62495 16.5008 10.6543 16.5 11.699C16.5 11.8482 16.4408 11.9912 16.3353 12.0967C16.2298 12.2022 16.0867 12.2615 15.9375 12.2615C15.7883 12.2615 15.6453 12.2022 15.5398 12.0967C15.4343 11.9912 15.375 11.8482 15.375 11.699C15.375 9.44897 13.984 7.52297 12.0146 6.73547C12.5051 6.53916 13.1177 6.42216 13.719 6.38391H13.7196Z" fill="#FF6723"/>
</svg>
