<svg width="20" height="21" viewBox="0 0 20 21" fill="none" xmlns="http://www.w3.org/2000/svg">
<path d="M14.875 9.1875C13.6875 7.25 13.7812 3.96875 10.6875 3.96875C7.59375 3.96875 7.90625 7.25 6.75 9.1875C5.90625 10.5937 4.1875 12.5 4.1875 14.5625C4.1875 21.6562 17.4688 21.6562 17.4688 14.5625C17.4375 12.5 15.7187 10.5937 14.875 9.1875Z" fill="#CED74D"/>
<path d="M10.9995 1.15635C10.9682 1.0626 10.6557 1.21885 10.687 1.3126C11.2182 2.78135 10.562 3.90635 10.4057 4.0626C10.187 4.28135 10.687 4.46885 10.9057 4.1876C10.937 4.1251 11.6557 2.6251 10.9995 1.15635Z" fill="#947151"/>
<path d="M6.625 2.12518C5.1875 3.84393 2.8125 4.59393 2.8125 4.59393C2.8125 4.59393 7.65625 5.78143 10.1875 3.31268C10.9062 2.62518 10.7812 1.43768 10.7812 1.43768C10.7812 1.43768 8.0625 0.406428 6.625 2.12518Z" fill="#8CC63E"/>
<path d="M10.8125 1.4375C10.4687 1.4375 10.125 1.46875 9.78125 1.5625C9.40625 1.625 9.0625 1.75 8.6875 1.875C8 2.1875 7.375 2.59375 6.75 3C6.15625 3.40625 5.53125 3.75 4.84375 4.03125C4.1875 4.3125 3.46875 4.46875 2.78125 4.59375C3.125 4.5625 3.46875 4.53125 3.8125 4.46875C4.15625 4.40625 4.53125 4.28125 4.875 4.15625C5.59375 3.90625 6.25 3.53125 6.875 3.125C7.5 2.71875 8.0625 2.3125 8.71875 2C9.40625 1.6875 10.125 1.5 10.8125 1.4375Z" fill="#7FB539"/>
</svg>
