<svg width="25" height="25" viewBox="0 0 25 25" fill="none" xmlns="http://www.w3.org/2000/svg">
<path d="M12.1205 7.81648C11.982 6.16298 13.2055 5.45648 13.2055 5.45648C11.606 5.51298 10.7585 6.86948 10.7585 6.86948C10.3825 6.21948 11.2315 4.86348 11.843 4.50998C10.244 4.56648 10.008 5.56998 10.008 5.56998C9.25649 4.26948 9.49299 3.26648 9.49299 3.26648C8.93249 3.58998 8.60949 4.32298 8.42249 5.02248L7.26349 3.68748C7.14849 4.20948 7.34199 5.27448 7.54999 6.16698C6.02249 5.27198 4.59849 6.09198 4.59849 6.09198C6.57349 6.68598 7.32349 7.98598 7.32349 7.98598C7.32349 7.98598 5.34949 7.39248 4.50049 8.74898C5.79899 8.70298 6.75049 8.99848 7.42849 9.36398C6.84699 9.50848 5.85599 9.24598 5.25099 10.0495C5.25099 10.0495 6.84999 9.99298 7.17649 10.577C6.09049 10.884 5.38899 11.7025 5.38899 11.7025C7.59999 11.2935 9.95049 12.537 9.95049 12.537L13.01 10.771C12.4955 8.46748 14.331 7.40748 14.331 7.40748C12.969 6.45998 12.1205 7.81648 12.1205 7.81648Z" fill="#ABCD48"/>
<path d="M17.78 14.44C19.024 16.5945 18.389 19.29 16.3615 20.4605C14.334 21.631 11.682 20.8335 10.4385 18.6795L9.64404 17.303C8.40004 15.148 9.03554 12.4535 11.0625 11.283C13.09 10.1125 15.742 10.9095 16.9855 13.064L17.78 14.44Z" fill="#FFAC33"/>
<path d="M18.281 15.682C18.1735 15.2464 18.0048 14.8283 17.78 14.44L17.687 14.2785V14.279L16.7115 13.865L17.0235 13.1295L16.986 13.064C15.9735 11.309 14.026 10.4555 12.243 10.831L11.834 11.794L10.892 11.394C9.25203 12.455 8.60853 14.5535 9.26103 16.458L9.76403 16.6715L9.56353 17.1445C9.59103 17.197 9.61453 17.2505 9.64503 17.302L10.4395 18.6785C10.7692 19.2497 11.2152 19.7452 11.7485 20.133L11.863 19.864L12.8385 20.278L12.6765 20.66C13.0071 20.797 13.3532 20.893 13.707 20.946L13.8145 20.6925L14.516 20.99C15.0987 20.9662 15.6691 20.8156 16.1875 20.5485L16.179 20.545L16.593 19.5695L17.1875 19.8215C17.4476 19.5632 17.6719 19.2713 17.8545 18.9535L17.008 18.5935L17.422 17.618L18.2555 17.9715C18.351 17.6215 18.406 17.258 18.4135 16.888L17.836 16.643L18.25 15.6675L18.281 15.682ZM15.175 12.0605L16.15 12.475L15.736 13.45L14.7605 13.036L15.175 12.0605ZM15.322 14.426L14.908 15.401L13.9325 14.9875L14.3465 14.012L15.322 14.426ZM13.2235 11.2325L14.199 11.6465L13.7845 12.6225L12.809 12.2085L13.2235 11.2325ZM12.3955 13.1835L13.371 13.5975L12.957 14.573L11.982 14.159L12.3955 13.1835ZM10.4445 12.356L11.4195 12.77L11.0055 13.7445L10.0305 13.3305L10.4445 12.356ZM9.20253 15.2825L9.61653 14.3065L10.592 14.7205L10.1775 15.6965L9.20253 15.2825ZM11.3005 18.475L10.325 18.0615L10.739 17.086L11.7145 17.5L11.3005 18.475ZM11.153 16.11L11.5675 15.1345L12.543 15.548L12.1285 16.524L11.153 16.11ZM13.251 19.303L12.276 18.889L12.69 17.914L13.665 18.3285L13.251 19.303ZM13.104 16.938L13.518 15.962L14.4935 16.3765L14.0795 17.3525L13.104 16.938ZM15.2025 20.132L14.227 19.718L14.641 18.7425L15.6165 19.1565L15.2025 20.132ZM16.031 18.18L15.056 17.7665L15.47 16.7905L16.445 17.2045L16.031 18.18ZM16.859 16.2295L15.8835 15.8155L16.2975 14.8405L17.273 15.254L16.859 16.2295Z" fill="#FFCC4D"/>
</svg>
