<svg width="25" height="25" viewBox="0 0 25 25" fill="none" xmlns="http://www.w3.org/2000/svg">
<path d="M18.0463 17.0231C18.8541 16.0512 19.416 14.899 19.6843 13.664C19.9527 12.429 19.9196 11.1475 19.5879 9.92797C19.2563 8.70845 18.6358 7.58674 17.7789 6.65774C16.9221 5.72875 15.8541 5.01979 14.6653 4.59084C13.4765 4.1619 12.2019 4.02558 10.9492 4.19343C9.69661 4.36128 8.50284 4.82836 7.4689 5.55515C6.43497 6.28194 5.5913 7.24706 5.00925 8.36887C4.4272 9.49067 4.1239 10.7362 4.125 12C4.12543 13.8372 4.77286 15.6156 5.95369 17.0231L5.94244 17.0327C5.98182 17.0799 6.02682 17.1204 6.06732 17.1671C6.11794 17.225 6.1725 17.2796 6.22482 17.3359C6.38232 17.5069 6.54432 17.6711 6.71419 17.8252C6.76594 17.8725 6.81938 17.9164 6.87169 17.9614C7.05169 18.1166 7.23675 18.264 7.42857 18.4012C7.45332 18.4181 7.47582 18.4401 7.50057 18.4575V18.4507C8.818 19.3778 10.3896 19.8754 12.0006 19.8754C13.6115 19.8754 15.1831 19.3778 16.5006 18.4507V18.4575C16.5253 18.4401 16.5473 18.4181 16.5726 18.4012C16.7638 18.2634 16.9494 18.1166 17.1294 17.9614C17.1818 17.9164 17.2352 17.8719 17.2869 17.8252C17.4568 17.6706 17.6188 17.5069 17.7763 17.3359C17.8286 17.2796 17.8826 17.225 17.9338 17.1671C17.9738 17.1204 18.0193 17.0799 18.0587 17.0321L18.0463 17.0231ZM12 7.49999C12.5006 7.49999 12.99 7.64844 13.4063 7.92658C13.8226 8.20472 14.147 8.60004 14.3386 9.06257C14.5302 9.5251 14.5803 10.034 14.4826 10.5251C14.3849 11.0161 14.1439 11.4671 13.7899 11.8211C13.4359 12.1751 12.9848 12.4162 12.4938 12.5139C12.0028 12.6115 11.4939 12.5614 11.0313 12.3698C10.5688 12.1782 10.1735 11.8538 9.89535 11.4375C9.61721 11.0213 9.46875 10.5319 9.46875 10.0312C9.46875 9.35991 9.73544 8.71607 10.2101 8.24137C10.6848 7.76667 11.3287 7.49999 12 7.49999ZM7.50394 17.0231C7.5137 16.2845 7.81385 15.5795 8.33945 15.0605C8.86506 14.5415 9.57386 14.2504 10.3125 14.25H13.6875C14.4261 14.2504 15.1349 14.5415 15.6606 15.0605C16.1862 15.5795 16.4863 16.2845 16.4961 17.0231C15.2624 18.1348 13.6606 18.75 12 18.75C10.3394 18.75 8.73759 18.1348 7.50394 17.0231Z" fill="#539F6B"/>
</svg>
