<svg width="41" height="42" viewBox="0 0 41 42" fill="none" xmlns="http://www.w3.org/2000/svg">
<g clip-path="url(#clip0_952_28194)">
<path d="M36.2325 34.0758C38.3368 31.5459 39.8005 28.5469 40.4995 25.3323C41.1986 22.1177 41.1124 18.7822 40.2485 15.6079C39.3845 12.4336 37.768 9.5139 35.5359 7.09581C33.3038 4.67772 30.5216 2.83238 27.4247 1.71587C24.3279 0.599373 21.0074 0.244562 17.7443 0.681459C14.4812 1.11835 11.3714 2.33411 8.67792 4.22586C5.98449 6.11762 3.78669 8.62973 2.27043 11.5497C0.754166 14.4696 -0.0359416 17.7115 -0.0330579 21.0011C-0.0319513 25.7832 1.65463 30.4122 4.73074 34.0758L4.70143 34.1007C4.804 34.2237 4.92123 34.3291 5.02673 34.4506C5.15861 34.6014 5.30075 34.7435 5.43703 34.8899C5.84732 35.335 6.26934 35.7625 6.71187 36.1637C6.84668 36.2866 6.98588 36.4008 7.12216 36.518C7.59107 36.9221 8.07316 37.3057 8.57284 37.6629C8.63731 37.7068 8.69593 37.764 8.7604 37.8093V37.7918C12.1924 40.2049 16.2865 41.5 20.4831 41.5C24.6796 41.5 28.7738 40.2049 32.2057 37.7918V37.8093C32.2702 37.764 32.3273 37.7068 32.3933 37.6629C32.8915 37.3042 33.3751 36.9221 33.844 36.518C33.9802 36.4008 34.1194 36.2852 34.2543 36.1637C34.6968 35.761 35.1188 35.335 35.5291 34.8899C35.6654 34.7435 35.806 34.6014 35.9394 34.4506C36.0434 34.3291 36.1621 34.2237 36.2647 34.0992L36.2325 34.0758ZM20.4816 9.28808C21.7858 9.28808 23.0606 9.6745 24.145 10.3985C25.2294 11.1224 26.0746 12.1514 26.5737 13.3553C27.0727 14.5592 27.2033 15.884 26.9489 17.162C26.6945 18.4401 26.0664 19.6141 25.1443 20.5355C24.2221 21.4569 23.0471 22.0844 21.768 22.3387C20.4889 22.5929 19.1631 22.4624 17.9582 21.9637C16.7533 21.4651 15.7234 20.6206 14.9989 19.5371C14.2743 18.4536 13.8876 17.1798 13.8876 15.8767C13.8876 14.1293 14.5823 12.4534 15.8189 11.2178C17.0555 9.98224 18.7328 9.28808 20.4816 9.28808ZM8.76919 34.0758C8.79461 32.1534 9.57651 30.3182 10.9457 28.9674C12.315 27.6165 14.1614 26.8586 16.0856 26.8576H24.8776C26.8018 26.8586 28.6482 27.6165 30.0175 28.9674C31.3867 30.3182 32.1686 32.1534 32.194 34.0758C28.9803 36.9694 24.8076 38.5708 20.4816 38.5708C16.1556 38.5708 11.9829 36.9694 8.76919 34.0758Z" fill="#004E35"/>
</g>
<defs>
<clipPath id="clip0_952_28194">
<rect width="41" height="41" fill="white" transform="translate(0 0.5)"/>
</clipPath>
</defs>
</svg>
