<svg width="38" height="38" viewBox="0 0 38 38" fill="none" xmlns="http://www.w3.org/2000/svg">
<path d="M31.4872 29.4116C33.1652 27.3897 34.3324 24.9929 34.8898 22.4239C35.4472 19.8548 35.3785 17.1891 34.6896 14.6522C34.0006 12.1154 32.7117 9.782 30.9317 7.84949C29.1518 5.91699 26.9333 4.44221 24.4638 3.54991C21.9944 2.65762 19.3466 2.37406 16.7446 2.72322C14.1425 3.07238 11.6627 4.044 9.51495 5.55587C7.36718 7.06774 5.61463 9.07538 4.40555 11.409C3.19647 13.7426 2.56643 16.3335 2.56873 18.9625C2.56961 22.7843 3.91451 26.4837 6.36743 29.4116L6.34406 29.4315C6.42585 29.5298 6.51933 29.614 6.60346 29.7111C6.70862 29.8317 6.82196 29.9452 6.93063 30.0622C7.2578 30.4179 7.59432 30.7596 7.9472 31.0802C8.0547 31.1785 8.1657 31.2697 8.27437 31.3633C8.64828 31.6863 9.0327 31.9929 9.43115 32.2784C9.48257 32.3135 9.5293 32.3591 9.58072 32.3954V32.3813C12.3174 34.3099 15.5821 35.3449 18.9285 35.3449C22.2748 35.3449 25.5396 34.3099 28.2762 32.3813V32.3954C28.3276 32.3591 28.3732 32.3135 28.4258 32.2784C28.8231 31.9917 29.2087 31.6863 29.5826 31.3633C29.6912 31.2697 29.8022 31.1773 29.9097 31.0802C30.2626 30.7584 30.5991 30.4179 30.9263 30.0622C31.035 29.9452 31.1472 29.8317 31.2535 29.7111C31.3364 29.614 31.4311 29.5298 31.5129 29.4303L31.4872 29.4116ZM18.9273 9.60153C19.9673 9.60153 20.9839 9.91035 21.8486 10.4889C22.7132 11.0675 23.3872 11.8899 23.7852 12.852C24.1831 13.8142 24.2873 14.8729 24.0844 15.8943C23.8815 16.9157 23.3807 17.8539 22.6454 18.5903C21.91 19.3267 20.9731 19.8282 19.9531 20.0314C18.9331 20.2346 17.8759 20.1303 16.9151 19.7318C15.9543 19.3332 15.1331 18.6583 14.5553 17.7924C13.9776 16.9265 13.6692 15.9085 13.6692 14.8671C13.6692 13.4705 14.2232 12.1312 15.2093 11.1438C16.1953 10.1563 17.5328 9.60153 18.9273 9.60153V9.60153ZM9.58773 29.4116C9.608 27.8752 10.2315 26.4085 11.3233 25.329C12.4152 24.2494 13.8875 23.6437 15.4219 23.6429H22.4327C23.9671 23.6437 25.4395 24.2494 26.5313 25.329C27.6231 26.4085 28.2466 27.8752 28.2669 29.4116C25.7042 31.7241 22.3769 33.0039 18.9273 33.0039C15.4777 33.0039 12.1504 31.7241 9.58773 29.4116V29.4116Z" fill="#F5FFE6"/>
</svg>
