<svg width="25" height="25" viewBox="0 0 25 25" fill="none" xmlns="http://www.w3.org/2000/svg">
<path d="M4.236 6.28601C3.75044 7.37628 3.49968 8.55651 3.5 9.75001C3.5 14.5825 7.5295 18.5 12.5 18.5C16.373 18.5 19.665 16.1165 20.934 12.78L4.236 6.28601Z" fill="#5C913B"/>
<path d="M5.166 6.64746C4.72696 7.62285 4.49996 8.68032 4.5 9.74996C4.5 14.0455 8.082 17.528 12.5 17.528C15.952 17.528 18.885 15.398 20.0065 12.419L5.166 6.64746Z" fill="#FFE8B6"/>
<path d="M6.0955 7.00952C5.70336 7.86994 5.50029 8.80445 5.5 9.75002C5.5 13.509 8.634 16.5555 12.5 16.5555C15.531 16.5555 18.105 14.679 19.078 12.058L6.0955 7.00952Z" fill="#DD2E44"/>
<path d="M7.95802 10.1385C7.80452 10.3685 7.58752 10.4925 7.47252 10.416C7.35752 10.3395 7.38852 10.0915 7.54202 9.8615C7.69552 9.6315 7.91252 9.5075 8.02752 9.584C8.14252 9.6605 8.11152 9.9085 7.95802 10.1385ZM10.958 10.6385C10.8045 10.8685 10.5875 10.9925 10.4725 10.916C10.3575 10.8395 10.3885 10.5915 10.542 10.3615C10.6955 10.1315 10.9125 10.0075 11.0275 10.084C11.1425 10.1605 11.1115 10.4085 10.958 10.6385ZM13.499 12.9775C13.524 13.253 13.433 13.4855 13.296 13.498C13.1585 13.5105 13.027 13.298 13.002 13.0225C12.9765 12.747 13.068 12.5145 13.205 12.5025C13.3425 12.4895 13.474 12.7015 13.499 12.9775ZM8.99902 11.9775C9.02402 12.253 8.93302 12.4855 8.79602 12.498C8.65852 12.5105 8.52702 12.298 8.50202 12.0225C8.47702 11.747 8.56802 11.5145 8.70502 11.5025C8.84302 11.4895 8.97402 11.7015 8.99902 11.9775ZM10.9495 14.6505C10.783 14.871 10.5595 14.982 10.4495 14.899C10.339 14.816 10.385 14.57 10.552 14.3495C10.7185 14.129 10.9425 14.018 11.052 14.101C11.1625 14.184 11.117 14.4295 10.9495 14.6505ZM14.9675 14.8775C15.104 15.118 15.117 15.367 14.9975 15.435C14.877 15.5035 14.6695 15.3635 14.533 15.123C14.3965 14.883 14.3835 14.6335 14.5035 14.5655C14.624 14.4965 14.831 14.636 14.9675 14.8775ZM11.459 12.3635C11.6105 12.595 11.64 12.8425 11.5245 12.918C11.409 12.994 11.193 12.868 11.0415 12.637C10.89 12.406 10.861 12.158 10.976 12.083C11.0915 12.006 11.3075 12.1315 11.459 12.3635ZM15.9495 13.1505C15.783 13.371 15.5595 13.482 15.449 13.399C15.3385 13.316 15.3845 13.07 15.5515 12.8495C15.718 12.6285 15.9415 12.518 16.0515 12.601C16.1625 12.684 16.117 12.9295 15.9495 13.1505Z" fill="black"/>
</svg>
