<svg width="94" height="94" viewBox="0 0 94 94" fill="none" xmlns="http://www.w3.org/2000/svg">
<g clip-path="url(#clip0_721_29265)">
<path d="M13.6885 36.271C18.4308 30.5059 26.7321 25.7524 35.8965 23.5568C47.2286 20.8418 57.4194 22.5632 63.8516 28.2815C66.8723 30.9651 69.0382 34.4855 70.288 38.7373C71.4001 42.5243 71.7822 46.9169 71.4335 51.8236C62.857 38.1873 46.1435 29.9077 30.1268 33.745C30.1268 33.745 46.066 34.075 58.4411 43.966C61.2606 46.2056 63.7294 48.8497 65.7665 51.8113C69.9592 57.4753 72.9726 63.9138 74.6301 70.7492L67.9187 72.3572C67.9187 72.3572 67.3901 65.7399 63.8377 58.8373C61.3077 59.8368 58.7134 60.6672 56.0718 61.3228C49.9007 62.8013 45.1921 62.5241 41.248 60.4537C37.715 58.599 35.2733 55.5508 32.6897 52.3282C28.744 47.4017 24.2734 41.8207 14.5467 39.0137C14.2724 38.9347 14.0219 38.7892 13.8179 38.5904C13.6139 38.3916 13.4627 38.1456 13.3778 37.8744C13.2929 37.6033 13.277 37.3155 13.3315 37.0368C13.386 36.7581 13.5092 36.4973 13.6901 36.2777L13.6885 36.271Z" fill="#F9FFF8"/>
</g>
<path d="M92.5 46.6668C92.5 21.732 72.139 1.50015 47 1.50015C21.861 1.50015 1.5 21.732 1.5 46.6668C1.5 71.6016 21.861 91.8335 47 91.8335C72.139 91.8335 92.5 71.6016 92.5 46.6668Z" stroke="#F9FFF8" stroke-width="3"/>
<defs>
<clipPath id="clip0_721_29265">
<rect width="55.2104" height="54.9391" fill="white" transform="matrix(-0.97248 0.232988 0.236144 0.971718 65.0098 16.5532)"/>
</clipPath>
</defs>
</svg>
