<svg width="94" height="94" viewBox="0 0 94 94" fill="none" xmlns="http://www.w3.org/2000/svg">
<g clip-path="url(#clip0_721_29266)">
<path d="M80.3115 36.271C75.5692 30.5059 67.2679 25.7524 58.1035 23.5568C46.7714 20.8418 36.5806 22.5632 30.1484 28.2815C27.1277 30.9651 24.9618 34.4855 23.712 38.7373C22.5999 42.5243 22.2178 46.9169 22.5665 51.8236C31.143 38.1873 47.8565 29.9077 63.8732 33.745C63.8732 33.745 47.934 34.075 35.5589 43.966C32.7394 46.2056 30.2706 48.8497 28.2335 51.8113C24.0408 57.4753 21.0274 63.9138 19.3699 70.7492L26.0813 72.3572C26.0813 72.3572 26.6099 65.7399 30.1623 58.8373C32.6923 59.8368 35.2866 60.6672 37.9282 61.3228C44.0993 62.8013 48.8079 62.5241 52.752 60.4537C56.285 58.599 58.7267 55.5508 61.3103 52.3282C65.256 47.4017 69.7266 41.8207 79.4533 39.0137C79.7276 38.9347 79.9781 38.7892 80.1821 38.5904C80.3861 38.3916 80.5373 38.1456 80.6222 37.8744C80.7071 37.6033 80.723 37.3155 80.6685 37.0368C80.614 36.7581 80.4908 36.4973 80.3099 36.2777L80.3115 36.271Z" fill="#004E35"/>
</g>
<path d="M1.5 46.6668C1.5 21.732 21.861 1.50015 47 1.50015C72.139 1.50015 92.5 21.732 92.5 46.6668C92.5 71.6016 72.139 91.8335 47 91.8335C21.861 91.8335 1.5 71.6016 1.5 46.6668Z" stroke="#004E35" stroke-width="3"/>
<defs>
<clipPath id="clip0_721_29266">
<rect width="55.2104" height="54.9391" fill="white" transform="matrix(0.97248 0.232988 -0.236144 0.971718 28.9902 16.5532)"/>
</clipPath>
</defs>
</svg>
