<svg width="20" height="21" viewBox="0 0 20 21" fill="none" xmlns="http://www.w3.org/2000/svg">
<path d="M19.7509 3.12751C17.5884 1.48876 14.2597 0.51001 10.8459 0.51001C6.62467 0.51001 3.18467 1.98376 1.40967 4.55376C0.575921 5.76001 0.114671 7.19001 0.0384214 8.80126C-0.0290786 10.2363 0.212171 11.8238 0.754671 13.5313C2.60717 7.97626 7.78217 3.62751 13.7484 3.62751C13.7484 3.62751 8.16592 5.09626 4.65592 9.64751C3.85503 10.6795 3.21216 11.825 2.74842 13.0463C1.7571 15.4071 1.24713 17.942 1.24842 20.5025H3.74842C3.74842 20.5025 3.36842 18.115 4.02842 15.37C5.00448 15.5093 5.98876 15.5832 6.97467 15.5913C9.27342 15.5913 10.9072 15.0938 12.1184 14.0263C13.2034 13.07 13.8022 11.7838 14.4359 10.4238C15.4034 8.34501 16.4997 5.99001 19.6834 4.17126C19.7732 4.12002 19.8489 4.0473 19.9038 3.95961C19.9586 3.87192 19.9907 3.772 19.9974 3.6688C20.0041 3.56561 19.9851 3.46237 19.9421 3.36834C19.8991 3.2743 19.8334 3.19241 19.7509 3.13001V3.12751Z" fill="#004E35"/>
</svg>
