<svg width="1512" height="139" viewBox="0 0 1512 139" fill="none" xmlns="http://www.w3.org/2000/svg">
<path d="M202.631 22.9111C212.746 24.0656 221.535 29.2001 228.076 35.7634C234.164 41.8446 238.151 49.1372 239.398 54.9465C218.674 61.7447 198.295 64.9831 176.5 56.1826C178.358 44.7617 183.962 30.0232 202.631 22.9111V22.9111ZM145.534 36.06C160.221 40.6086 164.704 49.5822 166.326 56.8253C149.014 62.3133 132.675 60.3109 116.159 55.9601C117.339 52.4992 120.377 48.1731 124.919 44.4897C130.139 40.2378 137.276 36.8511 145.534 36.06V36.06ZM140.992 64.5381C142.555 64.5876 144.148 64.6123 145.74 64.5876L154.558 100.235C153.202 101.322 152.022 102.336 150.99 103.424C149.81 104.66 148.866 105.995 148.04 107.527C146.684 105.278 145.062 102.954 143.204 100.581L140.992 64.5381V64.5381ZM209.207 65.7989C210.564 73.6848 211.124 81.5459 210.682 89.4071C204.312 93.8073 200.094 97.7626 196.939 103.572C196.26 102.163 195.523 100.754 194.786 99.3694C198.207 88.5913 200.832 77.5659 201.539 65.9225C204.105 65.9967 206.671 65.9472 209.207 65.7989V65.7989ZM119.875 82.8561C123.532 86.317 127.219 89.9509 130.64 93.6343C137.777 101.224 143.735 108.961 145.829 114.622L148.689 122.335L150.96 114.474C152.169 110.247 153.231 108.195 155.119 106.192C156.357 104.907 158.245 103.448 160.575 101.718C160.575 104.215 160.722 106.538 161.43 108.739C162.61 112.274 165.352 115.413 170.455 118.652L172.578 119.986L174.171 118.207C181.042 110.494 181.632 98.3559 180.128 87.1328C186.852 94.9692 190.952 102.138 194.373 110.518L196.968 116.921L199.416 110.469C203.014 100.877 207.231 97.0952 217.082 90.7914C216.403 94.1534 215.696 97.5401 215.489 101.001C215.165 106.316 216.108 111.853 220.178 117.391L224.004 122.557L225.074 116.55C227.168 104.808 231.403 99.5919 238.555 94.4006C233.925 105.648 234.361 117.045 238.416 128.762H111.264C114.301 121.89 116.159 114.251 113.564 105.105C119.05 106.983 124.712 110.889 126.157 117.762L127.75 125.252L131.23 118.231C134.769 111.112 130.817 102.212 126.039 93.4612C124.093 89.8273 121.91 86.2675 119.875 82.8561V82.8561Z" fill="#004E35"/>
<path d="M323.631 26.3782C333.746 27.5326 342.535 32.6671 349.076 39.2304C355.164 45.3117 359.151 52.6042 360.398 58.4136C339.674 65.2118 319.295 68.4501 297.5 59.6496C299.358 48.2287 304.962 33.4903 323.631 26.3782V26.3782ZM266.534 39.5271C281.221 44.0756 285.704 53.0492 287.326 60.2924C270.014 65.7803 253.675 63.778 237.159 59.4271C238.339 55.9663 241.377 51.6401 245.919 47.9568C251.139 43.7048 258.276 40.3181 266.534 39.5271V39.5271ZM261.992 68.0052C263.555 68.0546 265.148 68.0793 266.74 68.0546L275.558 103.702C274.202 104.789 273.022 105.803 271.99 106.891C270.81 108.127 269.866 109.462 269.04 110.994C267.684 108.745 266.062 106.421 264.204 104.048L261.992 68.0052V68.0052ZM330.207 69.2659C331.564 77.1518 332.124 85.0129 331.682 92.8741C325.312 97.2744 321.094 101.23 317.939 107.039C317.26 105.63 316.523 104.221 315.786 102.836C319.207 92.0583 321.832 81.0329 322.539 69.3895C325.105 69.4637 327.671 69.4143 330.207 69.2659V69.2659ZM240.875 86.3231C244.532 89.784 248.219 93.418 251.64 97.1013C258.777 104.691 264.735 112.428 266.829 118.089L269.689 125.802L271.96 117.941C273.169 113.714 274.231 111.662 276.119 109.659C277.357 108.374 279.245 106.915 281.575 105.185C281.575 107.682 281.722 110.005 282.43 112.206C283.61 115.741 286.352 118.88 291.455 122.119L293.578 123.453L295.171 121.674C302.042 113.961 302.632 101.823 301.128 90.5998C307.852 98.4362 311.952 105.605 315.373 113.985L317.968 120.388L320.416 113.936C324.014 104.344 328.231 100.562 338.082 94.2585C337.403 97.6205 336.696 101.007 336.489 104.468C336.165 109.783 337.108 115.32 341.178 120.858L345.004 126.024L346.074 120.017C348.168 108.275 352.403 103.059 359.555 97.8677C354.925 109.116 355.361 120.512 359.416 132.229H232.264C235.301 125.357 237.159 117.718 234.564 108.572C240.05 110.45 245.712 114.356 247.157 121.229L248.75 128.719L252.23 121.698C255.769 114.579 251.817 105.679 247.039 96.9283C245.093 93.2944 242.91 89.7346 240.875 86.3231V86.3231Z" fill="#004E35"/>
<path d="M806.631 14.2415C816.746 15.3959 825.535 20.5304 832.076 27.0937C838.164 33.175 842.151 40.4675 843.398 46.2769C822.674 53.075 802.295 56.3134 780.5 47.5129C782.358 36.092 787.962 21.3536 806.631 14.2415V14.2415ZM749.534 27.3903C764.221 31.9389 768.704 40.9125 770.326 48.1556C753.014 53.6436 736.675 51.6412 720.159 47.2904C721.339 43.8295 724.377 39.5034 728.919 35.8201C734.139 31.5681 741.276 28.1814 749.534 27.3903V27.3903ZM744.992 55.8685C746.555 55.9179 748.148 55.9426 749.74 55.9179L758.558 91.565C757.202 92.6527 756.022 93.6662 754.99 94.754C753.81 95.99 752.866 97.3249 752.04 98.8576C750.684 96.608 749.062 94.2843 747.204 91.9111L744.992 55.8685V55.8685ZM813.207 57.1292C814.564 65.0151 815.124 72.8762 814.682 80.7374C808.312 85.1376 804.094 89.0929 800.939 94.9023C800.26 93.4932 799.523 92.0841 798.786 90.6998C802.207 79.9216 804.832 68.8962 805.539 57.2528C808.105 57.327 810.671 57.2775 813.207 57.1292V57.1292ZM723.875 74.1864C727.532 77.6473 731.219 81.2812 734.64 84.9646C741.777 92.5538 747.735 100.291 749.829 105.952L752.689 113.665L754.96 105.804C756.169 101.577 757.231 99.525 759.119 97.5227C760.357 96.2372 762.245 94.7787 764.575 93.0482C764.575 95.545 764.722 97.8687 765.43 100.069C766.61 103.604 769.352 106.743 774.455 109.982L776.578 111.317L778.171 109.537C785.042 101.824 785.632 89.6862 784.128 78.4631C790.852 86.2995 794.952 93.4685 798.373 101.849L800.968 108.251L803.416 101.799C807.014 92.2077 811.231 88.4255 821.082 82.1217C820.403 85.4837 819.696 88.8705 819.489 92.3313C819.165 97.6463 820.108 103.184 824.178 108.721L828.004 113.888L829.074 107.881C831.168 96.1383 835.403 90.9223 842.555 85.7309C837.925 96.9788 838.361 108.375 842.416 120.093H715.264C718.301 113.22 720.159 105.582 717.564 96.435C723.05 98.3137 728.712 102.22 730.157 109.092L731.75 116.582L735.23 109.562C738.769 102.442 734.817 93.5426 730.039 84.7916C728.093 81.1576 725.91 77.5979 723.875 74.1864V74.1864Z" fill="#004E35"/>
<path d="M1333.63 14.2415C1343.75 15.3959 1352.54 20.5304 1359.08 27.0937C1365.16 33.175 1369.15 40.4675 1370.4 46.2769C1349.67 53.075 1329.3 56.3134 1307.5 47.5129C1309.36 36.092 1314.96 21.3536 1333.63 14.2415V14.2415ZM1276.53 27.3903C1291.22 31.9389 1295.7 40.9125 1297.33 48.1556C1280.01 53.6436 1263.68 51.6412 1247.16 47.2904C1248.34 43.8295 1251.38 39.5034 1255.92 35.8201C1261.14 31.5681 1268.28 28.1814 1276.53 27.3903V27.3903ZM1271.99 55.8685C1273.55 55.9179 1275.15 55.9426 1276.74 55.9179L1285.56 91.565C1284.2 92.6527 1283.02 93.6662 1281.99 94.754C1280.81 95.99 1279.87 97.3249 1279.04 98.8576C1277.68 96.608 1276.06 94.2843 1274.2 91.9111L1271.99 55.8685V55.8685ZM1340.21 57.1292C1341.56 65.0151 1342.12 72.8762 1341.68 80.7374C1335.31 85.1376 1331.09 89.0929 1327.94 94.9023C1327.26 93.4932 1326.52 92.0841 1325.79 90.6998C1329.21 79.9216 1331.83 68.8962 1332.54 57.2528C1335.11 57.327 1337.67 57.2775 1340.21 57.1292V57.1292ZM1250.88 74.1864C1254.53 77.6473 1258.22 81.2812 1261.64 84.9646C1268.78 92.5538 1274.73 100.291 1276.83 105.952L1279.69 113.665L1281.96 105.804C1283.17 101.577 1284.23 99.525 1286.12 97.5227C1287.36 96.2372 1289.24 94.7787 1291.57 93.0482C1291.57 95.545 1291.72 97.8687 1292.43 100.069C1293.61 103.604 1296.35 106.743 1301.45 109.982L1303.58 111.317L1305.17 109.537C1312.04 101.824 1312.63 89.6862 1311.13 78.4631C1317.85 86.2995 1321.95 93.4685 1325.37 101.849L1327.97 108.251L1330.42 101.799C1334.01 92.2077 1338.23 88.4255 1348.08 82.1217C1347.4 85.4837 1346.7 88.8705 1346.49 92.3313C1346.16 97.6463 1347.11 103.184 1351.18 108.721L1355 113.888L1356.07 107.881C1358.17 96.1383 1362.4 90.9223 1369.55 85.7309C1364.92 96.9788 1365.36 108.375 1369.42 120.093H1242.26C1245.3 113.22 1247.16 105.582 1244.56 96.435C1250.05 98.3137 1255.71 102.22 1257.16 109.092L1258.75 116.582L1262.23 109.562C1265.77 102.442 1261.82 93.5426 1257.04 84.7916C1255.09 81.1576 1252.91 77.5979 1250.88 74.1864V74.1864Z" fill="#004E35"/>
<path d="M1190.53 31.7246C1205.22 36.2732 1209.7 45.2468 1211.33 52.4899C1194.01 57.9779 1177.68 55.9755 1161.16 51.6247C1162.34 48.1638 1165.38 43.8377 1169.92 40.1543C1175.14 35.9024 1182.28 32.5157 1190.53 31.7246ZM1185.99 60.2027C1187.55 60.2522 1189.15 60.2769 1190.74 60.2522L1199.56 95.8993C1198.2 96.987 1197.02 98.0005 1195.99 99.0882C1194.81 100.324 1193.87 101.659 1193.04 103.192C1191.68 100.942 1190.06 98.6185 1188.2 96.2454L1185.99 60.2027ZM1164.88 78.5207C1168.53 81.9816 1172.22 85.6155 1175.64 89.2989C1182.78 96.8881 1188.73 104.626 1190.83 110.287L1193.69 117.999L1195.96 110.138C1197.17 105.911 1198.23 103.859 1200.12 101.857C1201.36 100.571 1203.24 99.1129 1205.57 97.3825C1205.57 99.8793 1205.72 102.203 1206.43 104.403C1207.61 107.938 1210.35 111.078 1215.45 114.316L1217.58 115.651L1219.17 113.871C1226.04 106.158 1226.63 94.0205 1225.13 82.7974C1231.85 90.6338 1235.95 97.8028 1239.37 106.183L1241.97 112.586L1244.42 106.134C1248.01 96.542 1252.23 92.7598 1262.08 86.456C1261.4 89.818 1260.7 93.2047 1260.49 96.6656C1260.16 101.981 1261.11 107.518 1265.18 113.055L1269 118.222L1270.07 112.215C1272.17 100.473 1276.4 95.2565 1283.55 90.0652C1278.92 101.313 1279.36 112.709 1283.42 124.427H1156.26C1159.3 117.555 1161.16 109.916 1158.56 100.769C1164.05 102.648 1169.71 106.554 1171.16 113.426L1172.75 120.917L1176.23 113.896C1179.77 106.776 1175.82 97.8769 1171.04 89.1258C1169.09 85.4919 1166.91 81.9321 1164.88 78.5207Z" fill="#004E35"/>
<path d="M356.875 80.2553C360.532 83.7162 364.219 87.3501 367.64 91.0335C374.777 98.6227 380.735 106.36 382.829 112.021L385.689 119.734L387.96 111.873C389.169 107.646 390.231 105.594 392.119 103.592C393.357 102.306 395.245 100.848 397.575 99.1171C397.575 101.614 397.722 103.938 398.43 106.138C399.61 109.673 402.352 112.812 407.455 116.051L409.578 117.386L411.171 115.606C418.042 107.893 418.632 95.7551 417.128 84.532C423.852 92.3684 427.952 99.5374 431.373 107.918L433.968 114.32L436.416 107.868C440.014 98.2766 444.231 94.4944 454.082 88.1906C453.403 91.5526 452.696 94.9394 452.489 98.4002C452.165 103.715 453.108 109.253 457.178 114.79L461.004 119.957L462.074 113.949C464.168 102.207 468.403 96.9912 475.555 91.7998C470.925 103.048 471.361 114.444 475.416 126.161H348.264C351.301 119.289 353.159 111.65 350.564 102.504C356.05 104.383 361.712 108.288 363.157 115.161L364.75 122.651L368.23 115.63C371.769 108.511 367.817 99.6115 363.039 90.8605C361.093 87.2265 358.91 83.6668 356.875 80.2553Z" fill="#004E35"/>
<path d="M587.125 74.1865C583.468 77.6474 579.781 81.2813 576.36 84.9647C569.223 92.5539 563.265 100.291 561.171 105.952L558.311 113.665L556.04 105.804C554.831 101.577 553.769 99.5251 551.881 97.5227C550.643 96.2372 548.755 94.7787 546.425 93.0483C546.425 95.5451 546.278 97.8688 545.57 100.069C544.39 103.604 541.648 106.743 536.545 109.982L534.422 111.317L532.829 109.537C525.958 101.824 525.368 89.6863 526.872 78.4631C520.148 86.2996 516.048 93.4685 512.627 101.849L510.032 108.251L507.584 101.799C503.986 92.2078 499.769 88.4255 489.918 82.1218C490.597 85.4838 491.304 88.8705 491.511 92.3314C491.835 97.6463 490.892 103.184 486.822 108.721L482.996 113.888L481.926 107.881C479.832 96.1384 475.597 90.9223 468.445 85.731C473.075 96.9789 472.639 108.375 468.584 120.093H595.736C592.699 113.22 590.841 105.582 593.436 96.435C587.95 98.3138 582.288 102.22 580.843 109.092L579.25 116.582L575.77 109.562C572.231 102.442 576.183 93.5427 580.961 84.7916C582.907 81.1577 585.09 77.5979 587.125 74.1865Z" fill="#004E35"/>
<path d="M1149.12 77.6535C1145.47 81.1144 1141.78 84.7483 1138.36 88.4317C1131.22 96.0209 1125.27 103.758 1123.17 109.419L1120.31 117.132L1118.04 109.271C1116.83 105.044 1115.77 102.992 1113.88 100.99C1112.64 99.7043 1110.76 98.2458 1108.43 96.5153C1108.43 99.0121 1108.28 101.336 1107.57 103.536C1106.39 107.071 1103.65 110.211 1098.55 113.449L1096.42 114.784L1094.83 113.004C1087.96 105.291 1087.37 93.1533 1088.87 81.9302C1082.15 89.7666 1078.05 96.9356 1074.63 105.316L1072.03 111.718L1069.58 105.266C1065.99 95.6748 1061.77 91.8926 1051.92 85.5888C1052.6 88.9508 1053.3 92.3375 1053.51 95.7984C1053.84 101.113 1052.89 106.651 1048.82 112.188L1045 117.355L1043.93 111.348C1041.83 99.6054 1037.6 94.3894 1030.45 89.198C1035.08 100.446 1034.64 111.842 1030.58 123.56H1157.74C1154.7 116.687 1152.84 109.049 1155.44 99.902C1149.95 101.781 1144.29 105.687 1142.84 112.559L1141.25 120.049L1137.77 113.029C1134.23 105.909 1138.18 97.0097 1142.96 88.2587C1144.91 84.6247 1147.09 81.065 1149.12 77.6535Z" fill="#004E35"/>
<path d="M1481.12 74.1865C1477.47 77.6474 1473.78 81.2813 1470.36 84.9647C1463.22 92.5539 1457.27 100.291 1455.17 105.952L1452.31 113.665L1450.04 105.804C1448.83 101.577 1447.77 99.5251 1445.88 97.5227C1444.64 96.2372 1442.76 94.7787 1440.43 93.0483C1440.43 95.5451 1440.28 97.8688 1439.57 100.069C1438.39 103.604 1435.65 106.743 1430.55 109.982L1428.42 111.317L1426.83 109.537C1419.96 101.824 1419.37 89.6863 1420.87 78.4631C1414.15 86.2996 1410.05 93.4685 1406.63 101.849L1404.03 108.251L1401.58 101.799C1397.99 92.2078 1393.77 88.4255 1383.92 82.1218C1384.6 85.4838 1385.3 88.8705 1385.51 92.3314C1385.84 97.6463 1384.89 103.184 1380.82 108.721L1377 113.888L1375.93 107.881C1373.83 96.1384 1369.6 90.9223 1362.45 85.731C1367.08 96.9789 1366.64 108.375 1362.58 120.093H1489.74C1486.7 113.22 1484.84 105.582 1487.44 96.435C1481.95 98.3138 1476.29 102.22 1474.84 109.092L1473.25 116.582L1469.77 109.562C1466.23 102.442 1470.18 93.5427 1474.96 84.7916C1476.91 81.1577 1479.09 77.5979 1481.12 74.1865Z" fill="#004E35"/>
<path d="M1622.12 74.1865C1618.47 77.6474 1614.78 81.2813 1611.36 84.9647C1604.22 92.5539 1598.27 100.291 1596.17 105.952L1593.31 113.665L1591.04 105.804C1589.83 101.577 1588.77 99.5251 1586.88 97.5227C1585.64 96.2372 1583.76 94.7787 1581.43 93.0483C1581.43 95.5451 1581.28 97.8688 1580.57 100.069C1579.39 103.604 1576.65 106.743 1571.55 109.982L1569.42 111.317L1567.83 109.537C1560.96 101.824 1560.37 89.6863 1561.87 78.4631C1555.15 86.2996 1551.05 93.4685 1547.63 101.849L1545.03 108.251L1542.58 101.799C1538.99 92.2078 1534.77 88.4255 1524.92 82.1218C1525.6 85.4838 1526.3 88.8705 1526.51 92.3314C1526.84 97.6463 1525.89 103.184 1521.82 108.721L1518 113.888L1516.93 107.881C1514.83 96.1384 1510.6 90.9223 1503.45 85.731C1508.08 96.9789 1507.64 108.375 1503.58 120.093H1630.74C1627.7 113.22 1625.84 105.582 1628.44 96.435C1622.95 98.3138 1617.29 102.22 1615.84 109.092L1614.25 116.582L1610.77 109.562C1607.23 102.442 1611.18 93.5427 1615.96 84.7916C1617.91 81.1577 1620.09 77.5979 1622.12 74.1865Z" fill="#004E35"/>
<path d="M912.875 74.1865C916.532 77.6474 920.219 81.2813 923.64 84.9647C930.777 92.5539 936.735 100.291 938.829 105.952L941.689 113.665L943.96 105.804C945.169 101.577 946.231 99.5251 948.119 97.5227C949.357 96.2372 951.245 94.7787 953.575 93.0483C953.575 95.5451 953.722 97.8688 954.43 100.069C955.61 103.604 958.352 106.743 963.455 109.982L965.578 111.317L967.171 109.537C974.042 101.824 974.632 89.6863 973.128 78.4631C979.852 86.2996 983.952 93.4685 987.373 101.849L989.968 108.251L992.416 101.799C996.014 92.2078 1000.23 88.4255 1010.08 82.1218C1009.4 85.4838 1008.7 88.8705 1008.49 92.3314C1008.16 97.6463 1009.11 103.184 1013.18 108.721L1017 113.888L1018.07 107.881C1020.17 96.1384 1024.4 90.9223 1031.55 85.731C1026.92 96.9789 1027.36 108.375 1031.42 120.093H904.264C907.301 113.22 909.159 105.582 906.564 96.435C912.05 98.3138 917.712 102.22 919.157 109.092L920.75 116.582L924.23 109.562C927.769 102.442 923.817 93.5427 919.039 84.7916C917.093 81.1577 914.91 77.5979 912.875 74.1865Z" fill="#004E35"/>
<path d="M799.875 76.7873C803.532 80.2482 807.219 83.8821 810.64 87.5655C817.777 95.1547 823.735 102.892 825.829 108.553L828.689 116.266L830.96 108.405C832.169 104.178 833.231 102.126 835.119 100.124C836.357 98.8381 838.245 97.3795 840.575 95.6491C840.575 98.1459 840.722 100.47 841.43 102.67C842.61 106.205 845.352 109.344 850.455 112.583L852.578 113.918L854.171 112.138C861.042 104.425 861.632 92.2871 860.128 81.064C866.852 88.9004 870.952 96.0694 874.373 104.45L876.968 110.852L879.416 104.4C883.014 94.8086 887.231 91.0264 897.082 84.7226C896.403 88.0846 895.696 91.4713 895.489 94.9322C895.165 100.247 896.108 105.785 900.178 111.322L904.004 116.489L905.074 110.481C907.168 98.7392 911.403 93.5231 918.555 88.3318C913.925 99.5797 914.361 110.976 918.416 122.693H791.264C794.301 115.821 796.159 108.182 793.564 99.0358C799.05 100.915 804.712 104.82 806.157 111.693L807.75 119.183L811.23 112.162C814.769 105.043 810.817 96.1435 806.039 87.3924C804.093 83.7585 801.91 80.1987 799.875 76.7873Z" fill="#004E35"/>
<path d="M710.125 78.5207C706.468 81.9816 702.781 85.6155 699.36 89.2989C692.223 96.8881 686.265 104.626 684.171 110.287L681.311 117.999L679.04 110.138C677.831 105.911 676.769 103.859 674.881 101.857C673.643 100.571 671.755 99.1129 669.425 97.3825C669.425 99.8793 669.278 102.203 668.57 104.403C667.39 107.938 664.648 111.078 659.545 114.316L657.422 115.651L655.829 113.871C648.958 106.158 648.368 94.0205 649.872 82.7974C643.148 90.6338 639.048 97.8028 635.627 106.183L633.032 112.586L630.584 106.134C626.986 96.542 622.769 92.7598 612.918 86.456C613.597 89.818 614.304 93.2047 614.511 96.6656C614.835 101.981 613.892 107.518 609.822 113.055L605.996 118.222L604.926 112.215C602.832 100.473 598.597 95.2565 591.445 90.0652C596.075 101.313 595.639 112.709 591.584 124.427H718.736C715.699 117.555 713.841 109.916 716.436 100.769C710.95 102.648 705.288 106.554 703.843 113.426L702.25 120.917L698.77 113.896C695.231 106.776 699.183 97.8769 703.961 89.1258C705.907 85.4919 708.09 81.9321 710.125 78.5207Z" fill="#004E35"/>
<path d="M102.125 83.342C98.4675 86.8029 94.781 90.4368 91.3599 94.1202C84.2228 101.709 78.2654 109.447 76.1714 115.108L73.3107 122.821L71.0398 114.96C69.8306 110.732 68.7689 108.681 66.8814 106.678C65.6427 105.393 63.7552 103.934 61.4253 102.204C61.4253 104.701 61.2779 107.024 60.5701 109.224C59.3904 112.759 56.6476 115.899 51.5454 119.137L49.422 120.472L47.8294 118.692C40.9578 110.98 40.3679 98.8418 41.872 87.6186C35.1478 95.4551 31.0484 102.624 27.6273 111.004L25.032 117.407L22.5841 110.955C18.9861 101.363 14.7687 97.5811 4.9183 91.2773C5.59662 94.6393 6.30444 98.026 6.51088 101.487C6.8353 106.802 5.89154 112.339 1.82162 117.877L-2.00352 123.043L-3.07408 117.036C-5.16803 105.294 -9.40311 100.078 -16.555 94.8865C-11.9247 106.134 -12.3612 117.531 -16.4163 129.248H110.736C107.699 122.376 105.841 114.737 108.436 105.591C102.95 107.469 97.2878 111.375 95.8427 118.247L94.2501 125.738L90.7701 118.717C87.231 111.598 91.183 102.698 95.9607 93.9471C97.9072 90.3132 100.09 86.7534 102.125 83.342Z" fill="#004E35"/>
</svg>
