<svg width="79" height="79" viewBox="0 0 79 79" fill="none" xmlns="http://www.w3.org/2000/svg">
<path d="M61.3029 1.23101L6.46961 28.6477C4.5246 29.6261 2.8897 31.1257 1.74732 32.9792C0.604935 34.8327 -3.61244e-06 36.9671 -3.4221e-06 39.1444C-3.23176e-06 41.3216 0.604936 43.456 1.74732 45.3095C2.88971 47.163 4.52461 48.6626 6.46961 49.641L61.3029 77.0577C63.4669 78.1347 65.9104 78.5182 68.3003 78.1557C70.6902 77.7933 72.9101 76.7026 74.6575 75.0323C76.4048 73.3621 77.5945 71.1936 78.0643 68.8225C78.5342 66.4514 78.2613 63.993 77.2829 61.7827L67.8829 40.7502C67.6697 40.2417 67.5598 39.6958 67.5598 39.1443C67.5598 38.5929 67.6697 38.047 67.8829 37.5385L77.2829 16.506C78.2613 14.2957 78.5342 11.8373 78.0643 9.46624C77.5945 7.09514 76.4048 4.92663 74.6575 3.25639C72.9101 1.58614 70.6902 0.495439 68.3003 0.132982C65.9104 -0.229467 63.4669 0.153971 61.3029 1.23101ZM69.1363 9.06435C69.7184 9.62338 70.1136 10.3486 70.2679 11.1408C70.4221 11.9331 70.3278 12.7536 69.9979 13.4902L60.6371 34.5227C59.9676 36.0267 59.6216 37.6547 59.6216 39.301C59.6216 40.9473 59.9676 42.5753 60.6371 44.0793L70.1154 64.9552C70.4338 65.6877 70.5205 66.5001 70.364 67.2834C70.2076 68.0666 69.8154 68.7833 69.24 69.3374C68.6647 69.8914 67.9337 70.2563 67.1451 70.3831C66.3565 70.5099 65.548 70.3926 64.8279 70.0468L9.99461 42.6302C9.35305 42.3015 8.81465 41.8021 8.43869 41.1871C8.06272 40.5721 7.86379 39.8652 7.86379 39.1444C7.86379 38.4235 8.06272 37.7166 8.43869 37.1016C8.81465 36.4866 9.35305 35.9872 9.99461 35.6585L64.8279 8.24185C65.5453 7.88745 66.3541 7.76129 67.1453 7.88033C67.9366 7.99937 68.6724 8.3579 69.2538 8.90769L69.1363 9.06435Z" fill="#FAC202"/>
</svg>
