<svg width="79" height="79" viewBox="0 0 79 79" fill="none" xmlns="http://www.w3.org/2000/svg">
<path d="M16.9861 77.0576L71.8194 49.6409C73.7645 48.6624 75.3994 47.1628 76.5417 45.3094C77.6841 43.4559 78.2891 41.3215 78.2891 39.1442C78.2891 36.967 77.6841 34.8326 76.5417 32.9791C75.3994 31.1256 73.7645 29.626 71.8194 28.6476L16.9861 1.23089C14.8221 0.153839 12.3786 -0.229597 9.98873 0.132856C7.59885 0.495309 5.37891 1.58601 3.63158 3.25626C1.88425 4.9265 0.694557 7.095 0.224716 9.46611C-0.245125 11.8372 0.0277405 14.2955 1.00612 16.5059L10.4061 37.5384C10.6194 38.0469 10.7292 38.5928 10.7292 39.1442C10.7292 39.6956 10.6194 40.2416 10.4061 40.7501L1.00612 61.7826C0.0277405 63.9929 -0.245125 66.4512 0.224716 68.8223C0.694557 71.1934 1.88425 73.3619 3.63158 75.0322C5.37891 76.7024 7.59885 77.7931 9.98873 78.1556C12.3786 78.518 14.8221 78.1346 16.9861 77.0576ZM9.15279 69.2242C8.57065 68.6652 8.17544 67.94 8.02119 67.1477C7.86696 66.3555 7.96123 65.535 8.29111 64.7984L17.652 43.7659C18.3215 42.2618 18.6674 40.6339 18.6674 38.9876C18.6674 37.3412 18.3215 35.7133 17.652 34.2092L8.17361 13.3334C7.8553 12.6008 7.76855 11.7885 7.92503 11.0052C8.0815 10.2219 8.4737 9.50525 9.04904 8.95121C9.62438 8.39718 10.3554 8.0323 11.144 7.90548C11.9326 7.77867 12.7411 7.89599 13.4611 8.24172L68.2944 35.6584C68.936 35.9871 69.4744 36.4864 69.8504 37.1015C70.2263 37.7165 70.4253 38.4234 70.4253 39.1442C70.4253 39.8651 70.2263 40.5719 69.8504 41.187C69.4744 41.802 68.936 42.3014 68.2944 42.6301L13.4611 70.0467C12.7437 70.4011 11.935 70.5273 11.1437 70.4082C10.3525 70.2892 9.61665 69.9307 9.03528 69.3809L9.15279 69.2242Z" fill="#FAC202"/>
</svg>
