<svg width="1512" height="137" viewBox="0 0 1512 137" fill="none" xmlns="http://www.w3.org/2000/svg">
<path d="M1307.37 22.5215C1297.25 23.6563 1288.46 28.7036 1281.92 35.1555C1275.84 41.1335 1271.85 48.3023 1270.6 54.013C1291.33 60.6957 1311.7 63.8792 1333.5 55.228C1331.64 44.001 1326.04 29.5128 1307.37 22.5215ZM1364.47 35.4471C1349.78 39.9185 1345.3 48.7397 1343.67 55.8599C1360.99 61.2547 1377.32 59.2863 1393.84 55.0093C1392.66 51.6072 1389.62 47.3546 1385.08 43.7337C1379.86 39.554 1372.72 36.2248 1364.47 35.4471ZM1369.01 63.4417C1367.45 63.4903 1365.85 63.5146 1364.26 63.4903L1355.44 98.5322C1356.8 99.6015 1357.98 100.598 1359.01 101.667C1360.19 102.882 1361.13 104.194 1361.96 105.701C1363.32 103.49 1364.94 101.205 1366.8 98.8724L1369.01 63.4417ZM1300.79 64.6811C1299.44 72.4331 1298.88 80.1608 1299.32 87.8884C1305.69 92.214 1309.91 96.1021 1313.06 101.813C1313.74 100.428 1314.48 99.0425 1315.21 97.6817C1311.79 87.0865 1309.17 76.2483 1308.46 64.8026C1305.89 64.8755 1303.33 64.8269 1300.79 64.6811ZM1390.12 81.4487C1386.47 84.8508 1382.78 88.4231 1379.36 92.0439C1372.22 99.5043 1366.27 107.11 1364.17 112.675L1361.31 120.257L1359.04 112.53C1357.83 108.374 1356.77 106.357 1354.88 104.389C1353.64 103.125 1351.76 101.691 1349.43 99.9903C1349.43 102.445 1349.28 104.729 1348.57 106.892C1347.39 110.367 1344.65 113.453 1339.55 116.636L1337.42 117.949L1335.83 116.199C1328.96 108.617 1328.37 96.6854 1329.87 85.6528C1323.15 93.3561 1319.05 100.403 1315.63 108.641L1313.03 114.935L1310.58 108.593C1306.99 99.1641 1302.77 95.446 1292.92 89.2493C1293.6 92.5542 1294.3 95.8834 1294.51 99.2856C1294.84 104.51 1293.89 109.954 1289.82 115.397L1286 120.476L1284.93 114.571C1282.83 103.028 1278.6 97.9004 1271.45 92.7972C1276.08 103.854 1275.64 115.057 1271.58 126.575H1398.74C1395.7 119.82 1393.84 112.311 1396.44 103.32C1390.95 105.166 1385.29 109.006 1383.84 115.762L1382.25 123.125L1378.77 116.223C1375.23 109.225 1379.18 100.476 1383.96 91.8738C1385.91 88.3016 1388.09 84.8022 1390.12 81.4487Z" fill="#004E35"/>
<path d="M1186.37 25.9302C1176.25 27.065 1167.46 32.1123 1160.92 38.5642C1154.84 44.5422 1150.85 51.711 1149.6 57.4217C1170.33 64.1044 1190.7 67.2879 1212.5 58.6367C1210.64 47.4097 1205.04 32.9215 1186.37 25.9302ZM1243.47 38.8558C1228.78 43.3272 1224.3 52.1484 1222.67 59.2686C1239.99 64.6634 1256.32 62.695 1272.84 58.418C1271.66 55.0159 1268.62 50.7633 1264.08 47.1424C1258.86 42.9627 1251.72 39.6334 1243.47 38.8558ZM1248.01 66.8504C1246.45 66.899 1244.85 66.9233 1243.26 66.899L1234.44 101.941C1235.8 103.01 1236.98 104.006 1238.01 105.076C1239.19 106.291 1240.13 107.603 1240.96 109.11C1242.32 106.898 1243.94 104.614 1245.8 102.281L1248.01 66.8504ZM1179.79 68.0898C1178.44 75.8418 1177.88 83.5694 1178.32 91.2971C1184.69 95.6227 1188.91 99.5108 1192.06 105.222C1192.74 103.836 1193.48 102.451 1194.21 101.09C1190.79 90.4952 1188.17 79.657 1187.46 68.2113C1184.89 68.2842 1182.33 68.2356 1179.79 68.0898ZM1269.12 84.8574C1265.47 88.2595 1261.78 91.8318 1258.36 95.4526C1251.22 102.913 1245.27 110.519 1243.17 116.084L1240.31 123.666L1238.04 115.938C1236.83 111.783 1235.77 109.766 1233.88 107.797C1232.64 106.534 1230.76 105.1 1228.43 103.399C1228.43 105.853 1228.28 108.138 1227.57 110.3C1226.39 113.775 1223.65 116.862 1218.55 120.045L1216.42 121.357L1214.83 119.608C1207.96 112.026 1207.37 100.094 1208.87 89.0614C1202.15 96.7648 1198.05 103.812 1194.63 112.05L1192.03 118.344L1189.58 112.001C1185.99 102.573 1181.77 98.8547 1171.92 92.658C1172.6 95.9629 1173.3 99.2921 1173.51 102.694C1173.84 107.919 1172.89 113.362 1168.82 118.806L1165 123.885L1163.93 117.979C1161.83 106.437 1157.6 101.309 1150.45 96.2059C1155.08 107.263 1154.64 118.466 1150.58 129.984H1277.74C1274.7 123.229 1272.84 115.72 1275.44 106.728C1269.95 108.575 1264.29 112.415 1262.84 119.17L1261.25 126.533L1257.77 119.632C1254.23 112.633 1258.18 103.885 1262.96 95.2825C1264.91 91.7103 1267.09 88.2109 1269.12 84.8574Z" fill="#004E35"/>
<path d="M703.369 13.9995C693.254 15.1344 684.465 20.1817 677.924 26.6335C671.836 32.6116 667.849 39.7803 666.602 45.491C687.326 52.1738 707.705 55.3572 729.5 46.7061C727.642 35.4791 722.038 20.9909 703.369 13.9995ZM760.466 26.9252C745.779 31.3965 741.296 40.2177 739.674 47.3379C756.986 52.7327 773.325 50.7643 789.841 46.4874C788.661 43.0852 785.623 38.8326 781.081 35.2118C775.861 31.032 768.724 27.7028 760.466 26.9252ZM765.008 54.9198C763.445 54.9684 761.852 54.9927 760.26 54.9684L751.442 90.0102C752.798 91.0795 753.978 92.0758 755.01 93.1451C756.19 94.3601 757.134 95.6724 757.96 97.179C759.316 94.9676 760.938 92.6833 762.796 90.3505L765.008 54.9198ZM696.793 56.1591C695.436 63.9111 694.876 71.6388 695.318 79.3665C701.688 83.692 705.906 87.5802 709.061 93.2909C709.74 91.9057 710.477 90.5206 711.214 89.1597C707.793 78.5645 705.168 67.7263 704.461 56.2806C701.895 56.3535 699.329 56.3049 696.793 56.1591ZM786.125 72.9267C782.468 76.3289 778.781 79.9011 775.36 83.5219C768.223 90.9823 762.265 98.5885 760.171 104.153L757.311 111.735L755.04 104.008C753.831 99.8521 752.769 97.8351 750.881 95.8668C749.643 94.6031 747.755 93.1694 745.425 91.4683C745.425 93.9227 745.278 96.207 744.57 98.3698C743.39 101.845 740.648 104.931 735.545 108.114L733.422 109.427L731.829 107.677C724.958 100.095 724.368 88.1634 725.872 77.1308C719.148 84.8342 715.048 91.8814 711.627 100.119L709.032 106.413L706.584 100.071C702.986 90.6421 698.769 86.924 688.918 80.7273C689.597 84.0322 690.304 87.3615 690.511 90.7636C690.835 95.9883 689.892 101.432 685.822 106.875L681.996 111.954L680.926 106.049C678.832 94.5059 674.597 89.3784 667.445 84.2752C672.075 95.3322 671.639 106.535 667.584 118.053H794.736C791.699 111.298 789.841 103.789 792.436 94.7975C786.95 96.6444 781.288 100.484 779.843 107.24L778.25 114.603L774.77 107.701C771.231 100.703 775.183 91.9543 779.961 83.3518C781.907 79.7796 784.09 76.2803 786.125 72.9267Z" fill="#004E35"/>
<path d="M176.369 13.9995C166.254 15.1344 157.465 20.1817 150.924 26.6335C144.836 32.6116 140.849 39.7803 139.602 45.491C160.326 52.1738 180.705 55.3572 202.5 46.7061C200.642 35.4791 195.038 20.9909 176.369 13.9995ZM233.466 26.9252C218.779 31.3965 214.296 40.2177 212.674 47.3379C229.986 52.7327 246.325 50.7643 262.841 46.4874C261.661 43.0852 258.623 38.8326 254.081 35.2118C248.861 31.032 241.724 27.7028 233.466 26.9252ZM238.008 54.9198C236.445 54.9684 234.852 54.9927 233.26 54.9684L224.442 90.0102C225.798 91.0795 226.978 92.0758 228.01 93.1451C229.19 94.3601 230.134 95.6724 230.96 97.179C232.316 94.9676 233.938 92.6833 235.796 90.3505L238.008 54.9198ZM169.793 56.1591C168.436 63.9111 167.876 71.6388 168.318 79.3665C174.688 83.692 178.906 87.5802 182.061 93.2909C182.74 91.9057 183.477 90.5206 184.214 89.1597C180.793 78.5645 178.168 67.7263 177.461 56.2806C174.895 56.3535 172.329 56.3049 169.793 56.1591ZM259.125 72.9267C255.468 76.3289 251.781 79.9011 248.36 83.5219C241.223 90.9823 235.265 98.5885 233.171 104.153L230.311 111.735L228.04 104.008C226.831 99.8521 225.769 97.8351 223.881 95.8668C222.643 94.6031 220.755 93.1694 218.425 91.4683C218.425 93.9227 218.278 96.207 217.57 98.3698C216.39 101.845 213.648 104.931 208.545 108.114L206.422 109.427L204.829 107.677C197.958 100.095 197.368 88.1634 198.872 77.1308C192.148 84.8342 188.048 91.8814 184.627 100.119L182.032 106.413L179.584 100.071C175.986 90.6421 171.769 86.924 161.918 80.7273C162.597 84.0322 163.304 87.3615 163.511 90.7636C163.835 95.9883 162.892 101.432 158.822 106.875L154.996 111.954L153.926 106.049C151.832 94.5059 147.597 89.3784 140.445 84.2752C145.075 95.3322 144.639 106.535 140.584 118.053H267.736C264.699 111.298 262.841 103.789 265.436 94.7975C259.95 96.6444 254.288 100.484 252.843 107.24L251.25 114.603L247.77 107.701C244.231 100.703 248.183 91.9543 252.961 83.3518C254.907 79.7796 257.09 76.2803 259.125 72.9267Z" fill="#004E35"/>
<path d="M319.466 31.1861C304.779 35.6575 300.296 44.4787 298.674 51.5989C315.986 56.9937 332.325 55.0253 348.841 50.7484C347.661 47.3462 344.623 43.0936 340.081 39.4727C334.861 35.293 327.724 31.9638 319.466 31.1861ZM324.008 59.1808C322.445 59.2294 320.852 59.2537 319.26 59.2294L310.442 94.2712C311.798 95.3405 312.978 96.3368 314.01 97.4061C315.19 98.6211 316.134 99.9333 316.96 101.44C318.316 99.2286 319.938 96.9443 321.796 94.6115L324.008 59.1808ZM345.125 77.1877C341.468 80.5898 337.781 84.1621 334.36 87.7829C327.223 95.2433 321.265 102.849 319.171 108.414L316.311 115.996L314.04 108.269C312.831 104.113 311.769 102.096 309.881 100.128C308.643 98.8641 306.755 97.4304 304.425 95.7293C304.425 98.1837 304.278 100.468 303.57 102.631C302.39 106.106 299.648 109.192 294.545 112.375L292.422 113.688L290.829 111.938C283.958 104.356 283.368 92.4244 284.872 81.3918C278.148 89.0951 274.048 96.1424 270.627 104.38L268.032 110.674L265.584 104.332C261.986 94.9031 257.769 91.185 247.918 84.9883C248.597 88.2932 249.304 91.6224 249.511 95.0246C249.835 100.249 248.892 105.693 244.822 111.136L240.996 116.215L239.926 110.31C237.832 98.7669 233.597 93.6394 226.445 88.5362C231.075 99.5931 230.639 110.796 226.584 122.314H353.736C350.699 115.559 348.841 108.05 351.436 99.0585C345.95 100.905 340.288 104.745 338.843 111.501L337.25 118.864L333.77 111.962C330.231 104.964 334.183 96.2153 338.961 87.6128C340.907 84.0406 343.09 80.5412 345.125 77.1877Z" fill="#004E35"/>
<path d="M1153.12 78.8923C1149.47 82.2944 1145.78 85.8667 1142.36 89.4875C1135.22 96.9479 1129.27 104.554 1127.17 110.119L1124.31 117.701L1122.04 109.973C1120.83 105.818 1119.77 103.801 1117.88 101.832C1116.64 100.569 1114.76 99.1349 1112.43 97.4339C1112.43 99.8883 1112.28 102.173 1111.57 104.335C1110.39 107.81 1107.65 110.897 1102.55 114.08L1100.42 115.392L1098.83 113.643C1091.96 106.061 1091.37 94.129 1092.87 83.0964C1086.15 90.7997 1082.05 97.847 1078.63 106.085L1076.03 112.379L1073.58 106.036C1069.99 96.6077 1065.77 92.8896 1055.92 86.6929C1056.6 89.9978 1057.3 93.327 1057.51 96.7292C1057.84 101.954 1056.89 107.397 1052.82 112.841L1049 117.92L1047.93 112.014C1045.83 100.471 1041.6 95.344 1034.45 90.2408C1039.08 101.298 1038.64 112.5 1034.58 124.019H1161.74C1158.7 117.263 1156.84 109.754 1159.44 100.763C1153.95 102.61 1148.29 106.45 1146.84 113.205L1145.25 120.568L1141.77 113.667C1138.23 106.668 1142.18 97.9199 1146.96 89.3174C1148.91 85.7452 1151.09 82.2458 1153.12 78.8923Z" fill="#004E35"/>
<path d="M922.875 72.927C926.532 76.3291 930.219 79.9013 933.64 83.5222C940.777 90.9825 946.735 98.5887 948.829 104.154L951.689 111.735L953.96 104.008C955.169 99.8524 956.231 97.8354 958.119 95.867C959.357 94.6034 961.245 93.1696 963.575 91.4685C963.575 93.9229 963.722 96.2072 964.43 98.37C965.61 101.845 968.352 104.931 973.455 108.115L975.578 109.427L977.171 107.677C984.042 100.095 984.632 88.1636 983.128 77.131C989.852 84.8344 993.952 91.8817 997.373 100.12L999.968 106.414L1002.42 100.071C1006.01 90.6423 1010.23 86.9243 1020.08 80.7276C1019.4 84.0325 1018.7 87.3617 1018.49 90.7638C1018.16 95.9885 1019.11 101.432 1023.18 106.875L1027 111.954L1028.07 106.049C1030.17 94.5062 1034.4 89.3787 1041.55 84.2755C1036.92 95.3324 1037.36 106.535 1041.42 118.054H914.264C917.301 111.298 919.159 103.789 916.564 94.7978C922.05 96.6446 927.712 100.484 929.157 107.24L930.75 114.603L934.23 107.702C937.769 100.703 933.817 91.9546 929.039 83.3521C927.093 79.7798 924.91 76.2805 922.875 72.927Z" fill="#004E35"/>
<path d="M360.875 76.3357C364.532 79.7378 368.219 83.31 371.64 86.9309C378.777 94.3912 384.735 101.997 386.829 107.562L389.689 115.144L391.96 107.417C393.169 103.261 394.231 101.244 396.119 99.2757C397.357 98.0121 399.245 96.5783 401.575 94.8772C401.575 97.3316 401.722 99.6159 402.43 101.779C403.61 105.254 406.352 108.34 411.455 111.523L413.578 112.836L415.171 111.086C422.042 103.504 422.632 91.5723 421.128 80.5397C427.852 88.2431 431.952 95.2904 435.373 103.528L437.968 109.822L440.416 103.48C444.014 94.051 448.231 90.333 458.082 84.1363C457.403 87.4412 456.696 90.7704 456.489 94.1725C456.165 99.3972 457.108 104.841 461.178 110.284L465.004 115.363L466.074 109.458C468.168 97.9148 472.403 92.7874 479.555 87.6842C474.925 98.7411 475.361 109.944 479.416 121.462H352.264C355.301 114.707 357.159 107.198 354.564 98.2065C360.05 100.053 365.712 103.893 367.157 110.649L368.75 118.012L372.23 111.11C375.769 104.112 371.817 95.3633 367.039 86.7607C365.093 83.1885 362.91 79.6892 360.875 76.3357Z" fill="#004E35"/>
<path d="M28.8755 72.927C32.5325 76.3291 36.219 79.9013 39.6401 83.5222C46.7772 90.9825 52.7346 98.5887 54.8286 104.154L57.6893 111.735L59.9602 104.008C61.1694 99.8524 62.2311 97.8354 64.1186 95.867C65.3573 94.6034 67.2448 93.1696 69.5747 91.4685C69.5747 93.9229 69.7221 96.2072 70.4299 98.37C71.6096 101.845 74.3524 104.931 79.4546 108.115L81.578 109.427L83.1706 107.677C90.0423 100.095 90.6321 88.1636 89.128 77.131C95.8522 84.8344 99.9516 91.8817 103.373 100.12L105.968 106.414L108.416 100.071C112.014 90.6423 116.231 86.9243 126.082 80.7276C125.403 84.0325 124.696 87.3617 124.489 90.7638C124.165 95.9885 125.108 101.432 129.178 106.875L133.004 111.954L134.074 106.049C136.168 94.5062 140.403 89.3787 147.555 84.2755C142.925 95.3324 143.361 106.535 147.416 118.054H20.2637C23.3014 111.298 25.1594 103.789 22.5641 94.7978C28.0497 96.6446 33.7122 100.484 35.1573 107.24L36.7499 114.603L40.2299 107.702C43.769 100.703 39.817 91.9546 35.0393 83.3521C33.0928 79.7798 30.9104 76.2805 28.8755 72.927Z" fill="#004E35"/>
<path d="M-112.125 72.927C-108.468 76.3291 -104.781 79.9013 -101.36 83.5222C-94.2228 90.9825 -88.2654 98.5887 -86.1714 104.154L-83.3107 111.735L-81.0398 104.008C-79.8306 99.8524 -78.7689 97.8354 -76.8814 95.867C-75.6427 94.6034 -73.7552 93.1696 -71.4253 91.4685C-71.4253 93.9229 -71.2779 96.2072 -70.5701 98.37C-69.3904 101.845 -66.6476 104.931 -61.5454 108.115L-59.422 109.427L-57.8294 107.677C-50.9577 100.095 -50.3679 88.1636 -51.872 77.131C-45.1478 84.8344 -41.0484 91.8817 -37.6273 100.12L-35.032 106.414L-32.5841 100.071C-28.9861 90.6423 -24.7687 86.9243 -14.9183 80.7276C-15.5966 84.0325 -16.3044 87.3617 -16.5109 90.7638C-16.8353 95.9885 -15.8915 101.432 -11.8216 106.875L-7.99648 111.954L-6.92592 106.049C-4.83197 94.5062 -0.596895 89.3787 6.55496 84.2755C1.92469 95.3324 2.36117 106.535 6.41635 118.054H-120.736C-117.699 111.298 -115.841 103.789 -118.436 94.7978C-112.95 96.6446 -107.288 100.484 -105.843 107.24L-104.25 114.603L-100.77 107.702C-97.231 100.703 -101.183 91.9546 -105.961 83.3521C-107.907 79.7798 -110.09 76.2805 -112.125 72.927Z" fill="#004E35"/>
<path d="M597.125 72.927C593.468 76.3291 589.781 79.9013 586.36 83.5222C579.223 90.9825 573.265 98.5887 571.171 104.154L568.311 111.735L566.04 104.008C564.831 99.8524 563.769 97.8354 561.881 95.867C560.643 94.6034 558.755 93.1696 556.425 91.4685C556.425 93.9229 556.278 96.2072 555.57 98.37C554.39 101.845 551.648 104.931 546.545 108.115L544.422 109.427L542.829 107.677C535.958 100.095 535.368 88.1636 536.872 77.131C530.148 84.8344 526.048 91.8817 522.627 100.12L520.032 106.414L517.584 100.071C513.986 90.6423 509.769 86.9243 499.918 80.7276C500.597 84.0325 501.304 87.3617 501.511 90.7638C501.835 95.9885 500.892 101.432 496.822 106.875L492.996 111.954L491.926 106.049C489.832 94.5062 485.597 89.3787 478.445 84.2755C483.075 95.3324 482.639 106.535 478.584 118.054H605.736C602.699 111.298 600.841 103.789 603.436 94.7978C597.95 96.6446 592.288 100.484 590.843 107.24L589.25 114.603L585.77 107.702C582.231 100.703 586.183 91.9546 590.961 83.3521C592.907 79.7798 595.09 76.2805 597.125 72.927Z" fill="#004E35"/>
<path d="M710.125 75.4836C706.468 78.8857 702.781 82.458 699.36 86.0788C692.223 93.5392 686.265 101.145 684.171 106.71L681.311 114.292L679.04 106.564C677.831 102.409 676.769 100.392 674.881 98.4237C673.643 97.16 671.755 95.7262 669.425 94.0252C669.425 96.4796 669.278 98.7639 668.57 100.927C667.39 104.402 664.648 107.488 659.545 110.671L657.422 111.984L655.829 110.234C648.958 102.652 648.368 90.7203 649.872 79.6877C643.148 87.391 639.048 94.4383 635.627 102.676L633.032 108.97L630.584 102.628C626.986 93.199 622.769 89.4809 612.918 83.2842C613.597 86.5891 614.304 89.9183 614.511 93.3205C614.835 98.5452 613.892 103.989 609.822 109.432L605.996 114.511L604.926 108.606C602.832 97.0628 598.597 91.9353 591.445 86.8321C596.075 97.889 595.639 109.092 591.584 120.61H718.736C715.699 113.855 713.841 106.346 716.436 97.3544C710.95 99.2013 705.288 103.041 703.843 109.796L702.25 117.16L698.77 110.258C695.231 103.26 699.183 94.5112 703.961 85.9087C705.907 82.3365 708.09 78.8371 710.125 75.4836Z" fill="#004E35"/>
<path d="M799.875 77.1877C803.532 80.5898 807.219 84.1621 810.64 87.7829C817.777 95.2433 823.735 102.849 825.829 108.414L828.689 115.996L830.96 108.269C832.169 104.113 833.231 102.096 835.119 100.128C836.357 98.8641 838.245 97.4304 840.575 95.7293C840.575 98.1837 840.722 100.468 841.43 102.631C842.61 106.106 845.352 109.192 850.455 112.375L852.578 113.688L854.171 111.938C861.042 104.356 861.632 92.4244 860.128 81.3918C866.852 89.0951 870.952 96.1424 874.373 104.38L876.968 110.674L879.416 104.332C883.014 94.9031 887.231 91.185 897.082 84.9883C896.403 88.2932 895.696 91.6224 895.489 95.0246C895.165 100.249 896.108 105.693 900.178 111.136L904.004 116.215L905.074 110.31C907.168 98.7669 911.403 93.6394 918.555 88.5362C913.925 99.5931 914.361 110.796 918.416 122.314H791.264C794.301 115.559 796.159 108.05 793.564 99.0585C799.05 100.905 804.712 104.745 806.157 111.501L807.75 118.864L811.23 111.962C814.769 104.964 810.817 96.2153 806.039 87.6128C804.093 84.0406 801.91 80.5412 799.875 77.1877Z" fill="#004E35"/>
<path d="M1407.88 81.927C1411.53 85.3291 1415.22 88.9013 1418.64 92.5222C1425.78 99.9825 1431.73 107.589 1433.83 113.154L1436.69 120.735L1438.96 113.008C1440.17 108.852 1441.23 106.835 1443.12 104.867C1444.36 103.603 1446.24 102.17 1448.57 100.469C1448.57 102.923 1448.72 105.207 1449.43 107.37C1450.61 110.845 1453.35 113.931 1458.45 117.115L1460.58 118.427L1462.17 116.677C1469.04 109.095 1469.63 97.1636 1468.13 86.131C1474.85 93.8344 1478.95 100.882 1482.37 109.12L1484.97 115.414L1487.42 109.071C1491.01 99.6423 1495.23 95.9243 1505.08 89.7276C1504.4 93.0325 1503.7 96.3617 1503.49 99.7638C1503.16 104.989 1504.11 110.432 1508.18 115.875L1512 120.954L1513.07 115.049C1515.17 103.506 1519.4 98.3787 1526.55 93.2755C1521.92 104.332 1522.36 115.535 1526.42 127.054H1399.26C1402.3 120.298 1404.16 112.789 1401.56 103.798C1407.05 105.645 1412.71 109.484 1414.16 116.24L1415.75 123.603L1419.23 116.702C1422.77 109.703 1418.82 100.955 1414.04 92.3521C1412.09 88.7798 1409.91 85.2805 1407.88 81.927Z" fill="#004E35"/>
</svg>
