<svg width="1521" height="100" viewBox="0 0 1521 100" fill="none" xmlns="http://www.w3.org/2000/svg">
<path d="M100.773 16.4741C110.803 17.3042 119.518 20.9962 126.004 25.7156C132.04 30.0884 135.993 35.3322 137.23 39.5095C116.681 44.3977 96.4742 46.7263 74.8634 40.3982C76.7058 32.1859 82.262 21.5882 100.773 16.4741ZM44.1581 25.9289C58.7212 29.1996 63.1661 35.6522 64.7745 40.8604C47.6087 44.8066 31.408 43.3668 15.0318 40.2383C16.2015 37.7497 19.2136 34.639 23.717 31.9904C28.8931 28.933 35.9699 26.4978 44.1581 25.9289ZM39.6546 46.4064C41.2045 46.4419 42.7836 46.4597 44.3628 46.4419L53.1065 72.0743C51.7613 72.8564 50.5916 73.5852 49.568 74.3673C48.3983 75.2561 47.4625 76.216 46.6437 77.3181C45.2985 75.7005 43.6902 74.0296 41.8478 72.3232L39.6546 46.4064ZM107.294 47.3129C108.639 52.9833 109.195 58.636 108.756 64.2886C102.44 67.4527 98.258 70.2967 95.129 74.474C94.4564 73.4608 93.7253 72.4476 92.9942 71.4521C96.3865 63.702 98.9891 55.7741 99.6909 47.4018C102.235 47.4551 104.779 47.4196 107.294 47.3129ZM18.7164 59.5781C22.3426 62.0667 25.998 64.6797 29.3902 67.3282C36.4671 72.7853 42.3742 78.3491 44.4505 82.4197L47.2871 87.9657L49.5388 82.313C50.7378 79.2734 51.7905 77.798 53.6621 76.3582C54.8903 75.4339 56.7619 74.3851 59.0721 73.1408C59.0721 74.9362 59.2183 76.6071 59.9202 78.1891C61.0899 80.731 63.8095 82.9885 68.8686 85.3171L70.9741 86.277L72.5532 84.9971C79.3669 79.4512 79.9518 70.7234 78.4604 62.6532C85.1278 68.2881 89.1926 73.443 92.5848 79.4689L95.1582 84.0728L97.5854 79.4334C101.153 72.5365 105.335 69.8168 115.102 65.284C114.43 67.7015 113.728 70.1368 113.523 72.6253C113.201 76.4471 114.137 80.4288 118.173 84.4105L121.966 88.1256L123.027 83.8062C125.103 75.3628 129.303 71.6121 136.394 67.8793C131.803 75.9671 132.236 84.1617 136.257 92.5873H10.1774C13.1895 87.6457 15.0318 82.153 12.4584 75.5761C17.8976 76.927 23.5123 79.7356 24.9452 84.6772L26.5244 90.0632L29.9751 85.0149C33.4843 79.8955 29.5657 73.4963 24.8283 67.2038C22.8982 64.5908 20.7342 62.0311 18.7164 59.5781Z" fill="#004E35"/>
<path d="M220.75 18.9675C230.78 19.7976 239.494 23.4896 245.981 28.209C252.016 32.5818 255.97 37.8256 257.207 42.0029C236.658 46.8912 216.451 49.2198 194.84 42.8917C196.682 34.6793 202.239 24.0816 220.75 18.9675ZM164.135 28.4224C178.698 31.6931 183.143 38.1456 184.751 43.3538C167.585 47.3 151.385 45.8602 135.008 42.7317C136.178 40.2431 139.19 37.1324 143.694 34.4838C148.87 31.4264 155.947 28.9912 164.135 28.4224ZM159.631 48.8998C161.181 48.9353 162.76 48.9531 164.339 48.9353L173.083 74.5677C171.738 75.3498 170.568 76.0786 169.545 76.8608C168.375 77.7495 167.439 78.7094 166.62 79.8115C165.275 78.1939 163.667 76.523 161.824 74.8166L159.631 48.8998ZM227.271 49.8064C228.616 55.4768 229.172 61.1294 228.733 66.782C222.416 69.9461 218.235 72.7901 215.106 76.9674C214.433 75.9542 213.702 74.941 212.971 73.9456C216.363 66.1954 218.966 58.2675 219.667 49.8952C222.212 49.9486 224.756 49.913 227.271 49.8064ZM138.693 62.0715C142.319 64.5601 145.975 67.1731 149.367 69.8216C156.444 75.2787 162.351 80.8425 164.427 84.9131L167.264 90.4591L169.515 84.8064C170.714 81.7668 171.767 80.2914 173.639 78.8516C174.867 77.9273 176.738 76.8785 179.049 75.6342C179.049 77.4296 179.195 79.1005 179.897 80.6825C181.066 83.2244 183.786 85.4819 188.845 87.8105L190.951 88.7704L192.53 87.4905C199.343 81.9446 199.928 73.2168 198.437 65.1467C205.104 70.7815 209.169 75.9364 212.561 81.9623L215.135 86.5662L217.562 81.9268C221.13 75.0299 225.311 72.3102 235.079 67.7774C234.406 70.1949 233.704 72.6302 233.5 75.1188C233.178 78.9405 234.114 82.9222 238.149 86.9039L241.942 90.619L243.004 86.2996C245.08 77.8562 249.279 74.1055 256.371 70.3727C251.779 78.4606 252.212 86.6551 256.233 95.0807H130.154C133.166 90.1391 135.008 84.6464 132.435 78.0695C137.874 79.4204 143.489 82.229 144.922 87.1706L146.501 92.5566L149.952 87.5083C153.461 82.389 149.542 75.9898 144.805 69.6972C142.875 67.0842 140.711 64.5245 138.693 62.0715Z" fill="#004E35"/>
<path d="M699.675 10.2405C709.706 11.0706 718.42 14.7626 724.906 19.482C730.942 23.8548 734.896 29.0986 736.133 33.2758C715.584 38.1641 695.377 40.4927 673.766 34.1646C675.608 25.9523 681.164 15.3545 699.675 10.2405ZM643.06 19.6953C657.624 22.966 662.068 29.4185 663.677 34.6268C646.511 38.5729 630.31 37.1331 613.934 34.0046C615.104 31.516 618.116 28.4053 622.619 25.7568C627.795 22.6994 634.872 20.2641 643.06 19.6953ZM638.557 40.1727C640.107 40.2083 641.686 40.2261 643.265 40.2083L652.009 65.8407C650.664 66.6228 649.494 67.3516 648.47 68.1337C647.301 69.0225 646.365 69.9824 645.546 71.0844C644.201 69.4669 642.593 67.796 640.75 66.0895L638.557 40.1727ZM706.197 41.0793C707.542 46.7497 708.097 52.4023 707.659 58.055C701.342 61.219 697.16 64.0631 694.031 68.2404C693.359 67.2271 692.628 66.2139 691.897 65.2185C695.289 57.4684 697.891 49.5405 698.593 41.1682C701.137 41.2215 703.682 41.186 706.197 41.0793ZM617.619 53.3444C621.245 55.833 624.9 58.446 628.293 61.0946C635.369 66.5517 641.277 72.1154 643.353 76.186L646.189 81.732L648.441 76.0794C649.64 73.0398 650.693 71.5644 652.564 70.1246C653.793 69.2002 655.664 68.1515 657.974 66.9072C657.974 68.7025 658.121 70.3734 658.822 71.9554C659.992 74.4974 662.712 76.7548 667.771 79.0834L669.876 80.0433L671.456 78.7635C678.269 73.2175 678.854 64.4897 677.363 56.4196C684.03 62.0545 688.095 67.2094 691.487 73.2353L694.061 77.8392L696.488 73.1997C700.055 66.3028 704.237 63.5832 714.004 59.0504C713.332 61.4679 712.63 63.9031 712.425 66.3917C712.104 70.2134 713.039 74.1952 717.075 78.1769L720.868 81.892L721.929 77.5725C724.006 69.1291 728.205 65.3785 735.296 61.6456C730.705 69.7335 731.138 77.928 735.159 86.3537H609.08C612.092 81.412 613.934 75.9194 611.361 69.3424C616.8 70.6934 622.415 73.5019 623.848 78.4435L625.427 83.8295L628.877 78.7813C632.387 73.6619 628.468 67.2627 623.731 60.9702C621.801 58.3571 619.637 55.7975 617.619 53.3444Z" fill="#004E35"/>
<path d="M1222.23 10.2405C1232.26 11.0706 1240.97 14.7626 1247.46 19.482C1253.49 23.8548 1257.45 29.0986 1258.68 33.2758C1238.13 38.1641 1217.93 40.4927 1196.32 34.1646C1198.16 25.9523 1203.72 15.3545 1222.23 10.2405ZM1165.61 19.6953C1180.17 22.966 1184.62 29.4185 1186.23 34.6268C1169.06 38.5729 1152.86 37.1331 1136.48 34.0046C1137.65 31.516 1140.67 28.4053 1145.17 25.7568C1150.35 22.6994 1157.42 20.2641 1165.61 19.6953ZM1161.11 40.1727C1162.66 40.2083 1164.24 40.2261 1165.82 40.2083L1174.56 65.8407C1173.21 66.6228 1172.04 67.3516 1171.02 68.1337C1169.85 69.0225 1168.92 69.9824 1168.1 71.0844C1166.75 69.4669 1165.14 67.796 1163.3 66.0895L1161.11 40.1727ZM1228.75 41.0793C1230.09 46.7497 1230.65 52.4023 1230.21 58.055C1223.89 61.219 1219.71 64.0631 1216.58 68.2404C1215.91 67.2271 1215.18 66.2139 1214.45 65.2185C1217.84 57.4684 1220.44 49.5405 1221.14 41.1682C1223.69 41.2215 1226.23 41.186 1228.75 41.0793ZM1140.17 53.3444C1143.8 55.833 1147.45 58.446 1150.84 61.0946C1157.92 66.5517 1163.83 72.1154 1165.9 76.186L1168.74 81.732L1170.99 76.0794C1172.19 73.0398 1173.24 71.5644 1175.12 70.1246C1176.34 69.2002 1178.22 68.1515 1180.53 66.9072C1180.53 68.7025 1180.67 70.3734 1181.37 71.9554C1182.54 74.4974 1185.26 76.7548 1190.32 79.0834L1192.43 80.0433L1194.01 78.7635C1200.82 73.2175 1201.4 64.4897 1199.91 56.4196C1206.58 62.0545 1210.65 67.2094 1214.04 73.2353L1216.61 77.8392L1219.04 73.1997C1222.61 66.3028 1226.79 63.5832 1236.56 59.0504C1235.88 61.4679 1235.18 63.9031 1234.98 66.3917C1234.65 70.2134 1235.59 74.1952 1239.63 78.1769L1243.42 81.892L1244.48 77.5725C1246.56 69.1291 1250.76 65.3785 1257.85 61.6456C1253.26 69.7335 1253.69 77.928 1257.71 86.3537H1131.63C1134.64 81.412 1136.48 75.9194 1133.91 69.3424C1139.35 70.6934 1144.97 73.5019 1146.4 78.4435L1147.98 83.8295L1151.43 78.7813C1154.94 73.6619 1151.02 67.2627 1146.28 60.9702C1144.35 58.3571 1142.19 55.7975 1140.17 53.3444Z" fill="#004E35"/>
<path d="M1080.33 22.8123C1094.9 26.083 1099.34 32.5355 1100.95 37.7438C1083.78 41.69 1067.58 40.2501 1051.21 37.1216C1052.38 34.6331 1055.39 31.5223 1059.89 28.8738C1065.07 25.8164 1072.15 23.3811 1080.33 22.8123ZM1075.83 43.2897C1077.38 43.3253 1078.96 43.3431 1080.54 43.3253L1089.28 68.9577C1087.94 69.7398 1086.77 70.4686 1085.74 71.2507C1084.57 72.1395 1083.64 73.0994 1082.82 74.2014C1081.47 72.5839 1079.87 70.913 1078.02 69.2065L1075.83 43.2897ZM1054.89 56.4614C1058.52 58.95 1062.17 61.563 1065.57 64.2116C1072.64 69.6687 1078.55 75.2324 1080.63 79.303L1083.46 84.849L1085.71 79.1964C1086.91 76.1568 1087.97 74.6814 1089.84 73.2416C1091.07 72.3172 1092.94 71.2685 1095.25 70.0242C1095.25 71.8195 1095.39 73.4904 1096.1 75.0725C1097.27 77.6144 1099.99 79.8718 1105.04 82.2004L1107.15 83.1603L1108.73 81.8805C1115.54 76.3345 1116.13 67.6067 1114.64 59.5366C1121.3 65.1715 1125.37 70.3264 1128.76 76.3523L1131.33 80.9562L1133.76 76.3167C1137.33 69.4198 1141.51 66.7002 1151.28 62.1674C1150.61 64.5849 1149.9 67.0201 1149.7 69.5087C1149.38 73.3304 1150.31 77.3122 1154.35 81.2939L1158.14 85.009L1159.2 80.6895C1161.28 72.2461 1165.48 68.4955 1172.57 64.7626C1167.98 72.8505 1168.41 81.045 1172.43 89.4707H1046.35C1049.37 84.5291 1051.21 79.0364 1048.63 72.4594C1054.07 73.8104 1059.69 76.6189 1061.12 81.5605L1062.7 86.9465L1066.15 81.8983C1069.66 76.7789 1065.74 70.3797 1061 64.0872C1059.07 61.4741 1056.91 58.9145 1054.89 56.4614Z" fill="#004E35"/>
<path d="M253.716 57.708C257.343 60.1966 260.998 62.8096 264.39 65.4582C271.467 70.9153 277.374 76.479 279.45 80.5496L282.287 86.0956L284.539 80.443C285.738 77.4033 286.791 75.928 288.662 74.4882C289.89 73.5638 291.762 72.5151 294.072 71.2708C294.072 73.0661 294.218 74.737 294.92 76.319C296.09 78.8609 298.809 81.1184 303.869 83.447L305.974 84.4069L307.553 83.1271C314.367 77.5811 314.952 68.8533 313.46 60.7832C320.128 66.418 324.193 71.573 327.585 77.5989L330.158 82.2027L332.585 77.5633C336.153 70.6664 340.335 67.9468 350.102 63.414C349.43 65.8315 348.728 68.2667 348.523 70.7553C348.201 74.577 349.137 78.5588 353.173 82.5405L356.966 86.2556L358.027 81.9361C360.103 73.4927 364.303 69.7421 371.394 66.0092C366.803 74.0971 367.236 82.2916 371.257 90.7172H245.177C248.189 85.7756 250.032 80.283 247.458 73.706C252.898 75.057 258.512 77.8655 259.945 82.8071L261.524 88.1931L264.975 83.1449C268.484 78.0255 264.566 71.6263 259.828 65.3337C257.898 62.7207 255.734 60.161 253.716 57.708Z" fill="#004E35"/>
<path d="M482.022 53.3445C478.396 55.8331 474.74 58.4461 471.348 61.0946C464.271 66.5517 458.364 72.1155 456.288 76.1861L453.451 81.7321L451.199 76.0794C450.001 73.0398 448.948 71.5644 447.076 70.1246C445.848 69.2003 443.976 68.1515 441.666 66.9072C441.666 68.7026 441.52 70.3735 440.818 71.9555C439.648 74.4974 436.929 76.7549 431.87 79.0835L429.764 80.0434L428.185 78.7635C421.371 73.2176 420.787 64.4898 422.278 56.4197C415.61 62.0545 411.546 67.2094 408.153 73.2353L405.58 77.8392L403.153 73.1998C399.585 66.3029 395.403 63.5832 385.636 59.0505C386.309 61.4679 387.011 63.9032 387.215 66.3918C387.537 70.2135 386.601 74.1952 382.566 78.177L378.773 81.8921L377.711 77.5726C375.635 69.1292 371.436 65.3786 364.344 61.6457C368.935 69.7336 368.503 77.9281 364.482 86.3537H490.561C487.549 81.4121 485.706 75.9195 488.28 69.3425C482.841 70.6934 477.226 73.502 475.793 78.4436L474.214 83.8296L470.763 78.7813C467.254 73.662 471.173 67.2628 475.91 60.9702C477.84 58.3572 480.004 55.7975 482.022 53.3445Z" fill="#004E35"/>
<path d="M1039.28 55.8379C1035.65 58.3265 1031.99 60.9395 1028.6 63.5881C1021.53 69.0452 1015.62 74.6089 1013.54 78.6795L1010.71 84.2255L1008.45 78.5728C1007.25 75.5332 1006.2 74.0579 1004.33 72.618C1003.1 71.6937 1001.23 70.6449 998.92 69.4007C998.92 71.196 998.774 72.8669 998.072 74.4489C996.902 76.9908 994.183 79.2483 989.124 81.5769L987.018 82.5368L985.439 81.257C978.625 75.711 978.04 66.9832 979.532 58.9131C972.864 64.5479 968.8 69.7028 965.407 75.7288L962.834 80.3326L960.407 75.6932C956.839 68.7963 952.657 66.0766 942.89 61.5439C943.563 63.9613 944.265 66.3966 944.469 68.8852C944.791 72.7069 943.855 76.6886 939.82 80.6704L936.027 84.3855L934.965 80.066C932.889 71.6226 928.69 67.872 921.598 64.1391C926.189 72.227 925.756 80.4215 921.736 88.8471H1047.81C1044.8 83.9055 1042.96 78.4129 1045.53 71.8359C1040.09 73.1868 1034.48 75.9954 1033.05 80.937L1031.47 86.323L1028.02 81.2747C1024.51 76.1554 1028.43 69.7562 1033.16 63.4636C1035.09 60.8506 1037.26 58.2909 1039.28 55.8379Z" fill="#004E35"/>
<path d="M1368.47 53.3445C1364.85 55.8331 1361.19 58.4461 1357.8 61.0946C1350.72 66.5517 1344.82 72.1155 1342.74 76.1861L1339.9 81.7321L1337.65 76.0794C1336.45 73.0398 1335.4 71.5644 1333.53 70.1246C1332.3 69.2003 1330.43 68.1515 1328.12 66.9072C1328.12 68.7026 1327.97 70.3735 1327.27 71.9555C1326.1 74.4974 1323.38 76.7549 1318.32 79.0835L1316.22 80.0434L1314.64 78.7635C1307.82 73.2176 1307.24 64.4898 1308.73 56.4197C1302.06 62.0545 1298 67.2094 1294.61 73.2353L1292.03 77.8392L1289.61 73.1998C1286.04 66.3029 1281.86 63.5832 1272.09 59.0505C1272.76 61.4679 1273.46 63.9032 1273.67 66.3918C1273.99 70.2135 1273.05 74.1952 1269.02 78.177L1265.23 81.8921L1264.16 77.5726C1262.09 69.1292 1257.89 65.3786 1250.8 61.6457C1255.39 69.7336 1254.96 77.9281 1250.93 86.3537H1377.01C1374 81.4121 1372.16 75.9195 1374.73 69.3425C1369.29 70.6934 1363.68 73.502 1362.25 78.4436L1360.67 83.8296L1357.22 78.7813C1353.71 73.662 1357.63 67.2628 1362.36 60.9702C1364.29 58.3572 1366.46 55.7975 1368.47 53.3445Z" fill="#004E35"/>
<path d="M1501.29 53.3445C1497.67 55.8331 1494.01 58.4461 1490.62 61.0946C1483.54 66.5517 1477.63 72.1155 1475.56 76.1861L1472.72 81.7321L1470.47 76.0794C1469.27 73.0398 1468.22 71.5644 1466.35 70.1246C1465.12 69.2003 1463.25 68.1515 1460.94 66.9072C1460.94 68.7026 1460.79 70.3735 1460.09 71.9555C1458.92 74.4974 1456.2 76.7549 1451.14 79.0835L1449.03 80.0434L1447.45 78.7635C1440.64 73.2176 1440.06 64.4898 1441.55 56.4197C1434.88 62.0545 1430.82 67.2094 1427.42 73.2353L1424.85 77.8392L1422.42 73.1998C1418.85 66.3029 1414.67 63.5832 1404.91 59.0505C1405.58 61.4679 1406.28 63.9032 1406.48 66.3918C1406.81 70.2135 1405.87 74.1952 1401.84 78.177L1398.04 81.8921L1396.98 77.5726C1394.9 69.1292 1390.71 65.3786 1383.61 61.6457C1388.2 69.7336 1387.77 77.9281 1383.75 86.3537H1509.83C1506.82 81.4121 1504.98 75.9195 1507.55 69.3425C1502.11 70.6934 1496.5 73.502 1495.06 78.4436L1493.48 83.8296L1490.03 78.7813C1486.52 73.662 1490.44 67.2628 1495.18 60.9702C1497.11 58.3572 1499.27 55.7975 1501.29 53.3445Z" fill="#004E35"/>
<path d="M805.021 53.3445C808.647 55.8331 812.303 58.4461 815.695 61.0946C822.772 66.5517 828.679 72.1155 830.755 76.1861L833.592 81.7321L835.843 76.0794C837.042 73.0398 838.095 71.5644 839.967 70.1246C841.195 69.2003 843.067 68.1515 845.377 66.9072C845.377 68.7026 845.523 70.3735 846.225 71.9555C847.395 74.4974 850.114 76.7549 855.173 79.0835L857.279 80.0434L858.858 78.7635C865.672 73.2176 866.256 64.4898 864.765 56.4197C871.432 62.0545 875.497 67.2094 878.89 73.2353L881.463 77.8392L883.89 73.1998C887.458 66.3029 891.64 63.5832 901.407 59.0505C900.734 61.4679 900.032 63.9032 899.828 66.3918C899.506 70.2135 900.442 74.1952 904.477 78.177L908.27 81.8921L909.332 77.5726C911.408 69.1292 915.607 65.3786 922.699 61.6457C918.108 69.7336 918.54 77.9281 922.561 86.3537H796.482C799.494 81.4121 801.336 75.9195 798.763 69.3425C804.202 70.6934 809.817 73.502 811.25 78.4436L812.829 83.8296L816.28 78.7813C819.789 73.662 815.87 67.2628 811.133 60.9702C809.203 58.3572 807.039 55.7975 805.021 53.3445Z" fill="#004E35"/>
<path d="M692.974 55.2146C696.6 57.7032 700.256 60.3162 703.648 62.9648C710.725 68.4219 716.632 73.9856 718.708 78.0562L721.545 83.6022L723.797 77.9496C724.996 74.9099 726.048 73.4346 727.92 71.9947C729.148 71.0704 731.02 70.0216 733.33 68.7774C733.33 70.5727 733.476 72.2436 734.178 73.8256C735.348 76.3675 738.067 78.625 743.126 80.9536L745.232 81.9135L746.811 80.6337C753.625 75.0877 754.21 66.3599 752.718 58.2898C759.386 63.9246 763.45 69.0796 766.843 75.1055L769.416 79.7093L771.843 75.0699C775.411 68.173 779.593 65.4533 789.36 60.9206C788.687 63.3381 787.985 65.7733 787.781 68.2619C787.459 72.0836 788.395 76.0653 792.43 80.0471L796.223 83.7622L797.285 79.4427C799.361 70.9993 803.56 67.2487 810.652 63.5158C806.061 71.6037 806.494 79.7982 810.514 88.2238H684.435C687.447 83.2822 689.29 77.7896 686.716 71.2126C692.155 72.5636 697.77 75.3721 699.203 80.3137L700.782 85.6997L704.233 80.6514C707.742 75.5321 703.823 69.1329 699.086 62.8403C697.156 60.2273 694.992 57.6676 692.974 55.2146Z" fill="#004E35"/>
<path d="M603.983 56.4614C600.357 58.95 596.701 61.563 593.309 64.2116C586.232 69.6687 580.325 75.2324 578.249 79.303L575.412 84.849L573.16 79.1964C571.961 76.1568 570.909 74.6814 569.037 73.2416C567.809 72.3172 565.937 71.2685 563.627 70.0242C563.627 71.8195 563.481 73.4904 562.779 75.0725C561.609 77.6144 558.89 79.8718 553.831 82.2004L551.725 83.1603L550.146 81.8805C543.332 76.3345 542.747 67.6067 544.239 59.5366C537.571 65.1715 533.507 70.3264 530.114 76.3523L527.541 80.9562L525.114 76.3167C521.546 69.4198 517.364 66.7002 507.597 62.1674C508.27 64.5849 508.972 67.0201 509.176 69.5087C509.498 73.3304 508.562 77.3122 504.527 81.2939L500.734 85.009L499.672 80.6895C497.596 72.2461 493.397 68.4955 486.305 64.7626C490.896 72.8505 490.463 81.045 486.443 89.4707H612.522C609.51 84.5291 607.667 79.0364 610.241 72.4594C604.802 73.8104 599.187 76.6189 597.754 81.5605L596.175 86.9465L592.724 81.8983C589.215 76.7789 593.134 70.3797 597.871 64.0872C599.801 61.4741 601.965 58.9145 603.983 56.4614Z" fill="#004E35"/>
</svg>
