<svg width="1512" height="100" viewBox="0 0 1512 100" fill="none" xmlns="http://www.w3.org/2000/svg">
<path d="M1415.37 16.4741C1405.25 17.3042 1396.46 20.9962 1389.92 25.7156C1383.84 30.0884 1379.85 35.3322 1378.6 39.5095C1399.33 44.3977 1419.7 46.7263 1441.5 40.3982C1439.64 32.1859 1434.04 21.5882 1415.37 16.4741ZM1472.47 25.9289C1457.78 29.1996 1453.3 35.6522 1451.67 40.8604C1468.99 44.8066 1485.32 43.3668 1501.84 40.2383C1500.66 37.7497 1497.62 34.639 1493.08 31.9904C1487.86 28.933 1480.72 26.4978 1472.47 25.9289ZM1477.01 46.4064C1475.45 46.4419 1473.85 46.4597 1472.26 46.4419L1463.44 72.0743C1464.8 72.8564 1465.98 73.5852 1467.01 74.3673C1468.19 75.2561 1469.13 76.216 1469.96 77.3181C1471.32 75.7005 1472.94 74.0296 1474.8 72.3232L1477.01 46.4064ZM1408.79 47.3129C1407.44 52.9833 1406.88 58.636 1407.32 64.2886C1413.69 67.4527 1417.91 70.2967 1421.06 74.474C1421.74 73.4608 1422.48 72.4476 1423.21 71.4521C1419.79 63.702 1417.17 55.7741 1416.46 47.4018C1413.89 47.4551 1411.33 47.4196 1408.79 47.3129ZM1498.12 59.5781C1494.47 62.0667 1490.78 64.6797 1487.36 67.3282C1480.22 72.7853 1474.27 78.3491 1472.17 82.4197L1469.31 87.9657L1467.04 82.313C1465.83 79.2734 1464.77 77.798 1462.88 76.3582C1461.64 75.4339 1459.76 74.3851 1457.43 73.1408C1457.43 74.9362 1457.28 76.6071 1456.57 78.1891C1455.39 80.731 1452.65 82.9885 1447.55 85.3171L1445.42 86.277L1443.83 84.9971C1436.96 79.4512 1436.37 70.7234 1437.87 62.6532C1431.15 68.2881 1427.05 73.443 1423.63 79.4689L1421.03 84.0728L1418.58 79.4334C1414.99 72.5365 1410.77 69.8168 1400.92 65.284C1401.6 67.7015 1402.3 70.1368 1402.51 72.6253C1402.84 76.4471 1401.89 80.4288 1397.82 84.4105L1394 88.1256L1392.93 83.8062C1390.83 75.3628 1386.6 71.6121 1379.45 67.8793C1384.08 75.9671 1383.64 84.1617 1379.58 92.5873H1506.74C1503.7 87.6457 1501.84 82.153 1504.44 75.5761C1498.95 76.927 1493.29 79.7356 1491.84 84.6772L1490.25 90.0632L1486.77 85.0149C1483.23 79.8955 1487.18 73.4963 1491.96 67.2038C1493.91 64.5908 1496.09 62.0311 1498.12 59.5781Z" fill="#004E35"/>
<path d="M1294.37 18.9677C1284.25 19.7978 1275.46 23.4898 1268.92 28.2092C1262.84 32.582 1258.85 37.8257 1257.6 42.003C1278.33 46.8913 1298.7 49.2199 1320.5 42.8918C1318.64 34.6795 1313.04 24.0817 1294.37 18.9677ZM1351.47 28.4225C1336.78 31.6932 1332.3 38.1457 1330.67 43.3539C1347.99 47.3001 1364.32 45.8603 1380.84 42.7318C1379.66 40.2432 1376.62 37.1325 1372.08 34.4839C1366.86 31.4265 1359.72 28.9913 1351.47 28.4225ZM1356.01 48.8999C1354.45 48.9355 1352.85 48.9532 1351.26 48.9355L1342.44 74.5678C1343.8 75.3499 1344.98 76.0788 1346.01 76.8609C1347.19 77.7497 1348.13 78.7095 1348.96 79.8116C1350.32 78.194 1351.94 76.5231 1353.8 74.8167L1356.01 48.8999ZM1287.79 49.8065C1286.44 55.4769 1285.88 61.1295 1286.32 66.7821C1292.69 69.9462 1296.91 72.7903 1300.06 76.9675C1300.74 75.9543 1301.48 74.9411 1302.21 73.9457C1298.79 66.1955 1296.17 58.2676 1295.46 49.8954C1292.89 49.9487 1290.33 49.9131 1287.79 49.8065ZM1377.12 62.0716C1373.47 64.5602 1369.78 67.1732 1366.36 69.8218C1359.22 75.2789 1353.27 80.8426 1351.17 84.9132L1348.31 90.4592L1346.04 84.8066C1344.83 81.7669 1343.77 80.2916 1341.88 78.8517C1340.64 77.9274 1338.76 76.8786 1336.43 75.6344C1336.43 77.4297 1336.28 79.1006 1335.57 80.6826C1334.39 83.2245 1331.65 85.482 1326.55 87.8106L1324.42 88.7705L1322.83 87.4907C1315.96 81.9447 1315.37 73.2169 1316.87 65.1468C1310.15 70.7816 1306.05 75.9366 1302.63 81.9625L1300.03 86.5663L1297.58 81.9269C1293.99 75.03 1289.77 72.3103 1279.92 67.7776C1280.6 70.195 1281.3 72.6303 1281.51 75.1189C1281.84 78.9406 1280.89 82.9223 1276.82 86.9041L1273 90.6192L1271.93 86.2997C1269.83 77.8563 1265.6 74.1057 1258.45 70.3728C1263.08 78.4607 1262.64 86.6552 1258.58 95.0808H1385.74C1382.7 90.1392 1380.84 84.6466 1383.44 78.0696C1377.95 79.4206 1372.29 82.2291 1370.84 87.1707L1369.25 92.5567L1365.77 87.5084C1362.23 82.3891 1366.18 75.9899 1370.96 69.6973C1372.91 67.0843 1375.09 64.5246 1377.12 62.0716Z" fill="#004E35"/>
<path d="M811.369 10.2405C801.254 11.0706 792.465 14.7626 785.924 19.482C779.836 23.8548 775.849 29.0986 774.602 33.2758C795.326 38.1641 815.705 40.4927 837.5 34.1646C835.642 25.9523 830.038 15.3545 811.369 10.2405ZM868.466 19.6953C853.779 22.966 849.296 29.4185 847.674 34.6268C864.986 38.5729 881.325 37.1331 897.841 34.0046C896.661 31.516 893.623 28.4053 889.081 25.7568C883.861 22.6994 876.724 20.2641 868.466 19.6953ZM873.008 40.1727C871.445 40.2083 869.852 40.2261 868.26 40.2083L859.442 65.8407C860.798 66.6228 861.978 67.3516 863.01 68.1337C864.19 69.0225 865.134 69.9824 865.96 71.0844C867.316 69.4669 868.938 67.796 870.796 66.0895L873.008 40.1727ZM804.793 41.0793C803.436 46.7497 802.876 52.4023 803.318 58.055C809.688 61.219 813.906 64.0631 817.061 68.2404C817.74 67.2271 818.477 66.2139 819.214 65.2185C815.793 57.4684 813.168 49.5405 812.461 41.1682C809.895 41.2215 807.329 41.186 804.793 41.0793ZM894.125 53.3444C890.468 55.833 886.781 58.446 883.36 61.0946C876.223 66.5517 870.265 72.1154 868.171 76.186L865.311 81.732L863.04 76.0794C861.831 73.0398 860.769 71.5644 858.881 70.1246C857.643 69.2002 855.755 68.1515 853.425 66.9072C853.425 68.7025 853.278 70.3734 852.57 71.9554C851.39 74.4974 848.648 76.7548 843.545 79.0834L841.422 80.0433L839.829 78.7635C832.958 73.2175 832.368 64.4897 833.872 56.4196C827.148 62.0545 823.048 67.2094 819.627 73.2353L817.032 77.8392L814.584 73.1997C810.986 66.3028 806.769 63.5832 796.918 59.0504C797.597 61.4679 798.304 63.9031 798.511 66.3917C798.835 70.2134 797.892 74.1952 793.822 78.1769L789.996 81.892L788.926 77.5725C786.832 69.1291 782.597 65.3785 775.445 61.6456C780.075 69.7335 779.639 77.928 775.584 86.3537H902.736C899.699 81.412 897.841 75.9194 900.436 69.3424C894.95 70.6934 889.288 73.5019 887.843 78.4435L886.25 83.8295L882.77 78.7813C879.231 73.6619 883.183 67.2627 887.961 60.9702C889.907 58.3571 892.09 55.7975 894.125 53.3444Z" fill="#004E35"/>
<path d="M284.369 10.2405C274.254 11.0706 265.465 14.7626 258.924 19.482C252.836 23.8548 248.849 29.0986 247.602 33.2758C268.326 38.1641 288.705 40.4927 310.5 34.1646C308.642 25.9523 303.038 15.3545 284.369 10.2405ZM341.466 19.6953C326.779 22.966 322.296 29.4185 320.674 34.6268C337.986 38.5729 354.325 37.1331 370.841 34.0046C369.661 31.516 366.623 28.4053 362.081 25.7568C356.861 22.6994 349.724 20.2641 341.466 19.6953ZM346.008 40.1727C344.445 40.2083 342.852 40.2261 341.26 40.2083L332.442 65.8407C333.798 66.6228 334.978 67.3516 336.01 68.1337C337.19 69.0225 338.134 69.9824 338.96 71.0844C340.316 69.4669 341.938 67.796 343.796 66.0895L346.008 40.1727ZM277.793 41.0793C276.436 46.7497 275.876 52.4023 276.318 58.055C282.688 61.219 286.906 64.0631 290.061 68.2404C290.74 67.2271 291.477 66.2139 292.214 65.2185C288.793 57.4684 286.168 49.5405 285.461 41.1682C282.895 41.2215 280.329 41.186 277.793 41.0793ZM367.125 53.3444C363.468 55.833 359.781 58.446 356.36 61.0946C349.223 66.5517 343.265 72.1154 341.171 76.186L338.311 81.732L336.04 76.0794C334.831 73.0398 333.769 71.5644 331.881 70.1246C330.643 69.2002 328.755 68.1515 326.425 66.9072C326.425 68.7025 326.278 70.3734 325.57 71.9554C324.39 74.4974 321.648 76.7548 316.545 79.0834L314.422 80.0433L312.829 78.7635C305.958 73.2175 305.368 64.4897 306.872 56.4196C300.148 62.0545 296.048 67.2094 292.627 73.2353L290.032 77.8392L287.584 73.1997C283.986 66.3028 279.769 63.5832 269.918 59.0504C270.597 61.4679 271.304 63.9031 271.511 66.3917C271.835 70.2134 270.892 74.1952 266.822 78.1769L262.996 81.892L261.926 77.5725C259.832 69.1291 255.597 65.3785 248.445 61.6456C253.075 69.7335 252.639 77.928 248.584 86.3537H375.736C372.699 81.412 370.841 75.9194 373.436 69.3424C367.95 70.6934 362.288 73.5019 360.843 78.4435L359.25 83.8295L355.77 78.7813C352.231 73.6619 356.183 67.2627 360.961 60.9702C362.907 58.3571 365.09 55.7975 367.125 53.3444Z" fill="#004E35"/>
<path d="M427.466 22.8122C412.779 26.0829 408.296 32.5354 406.674 37.7437C423.986 41.6898 440.325 40.25 456.841 37.1215C455.661 34.6329 452.623 31.5222 448.081 28.8736C442.861 25.8163 435.724 23.381 427.466 22.8122ZM432.008 43.2896C430.445 43.3252 428.852 43.343 427.26 43.3252L418.442 68.9575C419.798 69.7397 420.978 70.4685 422.01 71.2506C423.19 72.1394 424.134 73.0992 424.96 74.2013C426.316 72.5837 427.938 70.9128 429.796 69.2064L432.008 43.2896ZM453.125 56.4613C449.468 58.9499 445.781 61.5629 442.36 64.2115C435.223 69.6686 429.265 75.2323 427.171 79.3029L424.311 84.8489L422.04 79.1963C420.831 76.1566 419.769 74.6813 417.881 73.2414C416.643 72.3171 414.755 71.2684 412.425 70.0241C412.425 71.8194 412.278 73.4903 411.57 75.0723C410.39 77.6142 407.648 79.8717 402.545 82.2003L400.422 83.1602L398.829 81.8804C391.958 76.3344 391.368 67.6066 392.872 59.5365C386.148 65.1713 382.048 70.3263 378.627 76.3522L376.032 80.956L373.584 76.3166C369.986 69.4197 365.769 66.7 355.918 62.1673C356.597 64.5848 357.304 67.02 357.511 69.5086C357.835 73.3303 356.892 77.3121 352.822 81.2938L348.996 85.0089L347.926 80.6894C345.832 72.246 341.597 68.4954 334.445 64.7625C339.075 72.8504 338.639 81.0449 334.584 89.4705H461.736C458.699 84.5289 456.841 79.0363 459.436 72.4593C453.95 73.8103 448.288 76.6188 446.843 81.5604L445.25 86.9464L441.77 81.8981C438.231 76.7788 442.183 70.3796 446.961 64.087C448.907 61.474 451.09 58.9143 453.125 56.4613Z" fill="#004E35"/>
<path d="M1261.12 57.708C1257.47 60.1966 1253.78 62.8096 1250.36 65.4582C1243.22 70.9153 1237.27 76.479 1235.17 80.5496L1232.31 86.0956L1230.04 80.443C1228.83 77.4033 1227.77 75.928 1225.88 74.4882C1224.64 73.5638 1222.76 72.5151 1220.43 71.2708C1220.43 73.0661 1220.28 74.737 1219.57 76.319C1218.39 78.8609 1215.65 81.1184 1210.55 83.447L1208.42 84.4069L1206.83 83.1271C1199.96 77.5811 1199.37 68.8533 1200.87 60.7832C1194.15 66.418 1190.05 71.573 1186.63 77.5989L1184.03 82.2027L1181.58 77.5633C1177.99 70.6664 1173.77 67.9468 1163.92 63.414C1164.6 65.8315 1165.3 68.2667 1165.51 70.7553C1165.84 74.577 1164.89 78.5588 1160.82 82.5405L1157 86.2556L1155.93 81.9361C1153.83 73.4927 1149.6 69.7421 1142.45 66.0092C1147.08 74.0971 1146.64 82.2916 1142.58 90.7172H1269.74C1266.7 85.7756 1264.84 80.283 1267.44 73.706C1261.95 75.057 1256.29 77.8655 1254.84 82.8071L1253.25 88.1931L1249.77 83.1449C1246.23 78.0255 1250.18 71.6263 1254.96 65.3337C1256.91 62.7207 1259.09 60.161 1261.12 57.708Z" fill="#004E35"/>
<path d="M1030.88 53.3445C1034.53 55.8331 1038.22 58.4461 1041.64 61.0946C1048.78 66.5517 1054.73 72.1155 1056.83 76.1861L1059.69 81.7321L1061.96 76.0794C1063.17 73.0398 1064.23 71.5644 1066.12 70.1246C1067.36 69.2003 1069.24 68.1515 1071.57 66.9072C1071.57 68.7026 1071.72 70.3735 1072.43 71.9555C1073.61 74.4974 1076.35 76.7549 1081.45 79.0835L1083.58 80.0434L1085.17 78.7635C1092.04 73.2176 1092.63 64.4898 1091.13 56.4197C1097.85 62.0545 1101.95 67.2094 1105.37 73.2353L1107.97 77.8392L1110.42 73.1998C1114.01 66.3029 1118.23 63.5832 1128.08 59.0505C1127.4 61.4679 1126.7 63.9032 1126.49 66.3918C1126.16 70.2135 1127.11 74.1952 1131.18 78.177L1135 81.8921L1136.07 77.5726C1138.17 69.1292 1142.4 65.3786 1149.55 61.6457C1144.92 69.7336 1145.36 77.9281 1149.42 86.3537H1022.26C1025.3 81.4121 1027.16 75.9195 1024.56 69.3425C1030.05 70.6934 1035.71 73.502 1037.16 78.4436L1038.75 83.8296L1042.23 78.7813C1045.77 73.662 1041.82 67.2628 1037.04 60.9702C1035.09 58.3572 1032.91 55.7975 1030.88 53.3445Z" fill="#004E35"/>
<path d="M468.875 55.8379C472.532 58.3265 476.219 60.9395 479.64 63.5881C486.777 69.0452 492.735 74.6089 494.829 78.6795L497.689 84.2255L499.96 78.5728C501.169 75.5332 502.231 74.0579 504.119 72.618C505.357 71.6937 507.245 70.6449 509.575 69.4007C509.575 71.196 509.722 72.8669 510.43 74.4489C511.61 76.9908 514.352 79.2483 519.455 81.5769L521.578 82.5368L523.171 81.257C530.042 75.711 530.632 66.9832 529.128 58.9131C535.852 64.5479 539.952 69.7028 543.373 75.7288L545.968 80.3326L548.416 75.6932C552.014 68.7963 556.231 66.0766 566.082 61.5439C565.403 63.9613 564.696 66.3966 564.489 68.8852C564.165 72.7069 565.108 76.6886 569.178 80.6704L573.004 84.3855L574.074 80.066C576.168 71.6226 580.403 67.872 587.555 64.1391C582.925 72.227 583.361 80.4215 587.416 88.8471H460.264C463.301 83.9055 465.159 78.4129 462.564 71.8359C468.05 73.1868 473.712 75.9954 475.157 80.937L476.75 86.323L480.23 81.2747C483.769 76.1554 479.817 69.7562 475.039 63.4636C473.093 60.8506 470.91 58.2909 468.875 55.8379Z" fill="#004E35"/>
<path d="M136.875 53.3445C140.532 55.8331 144.219 58.4461 147.64 61.0946C154.777 66.5517 160.735 72.1155 162.829 76.1861L165.689 81.7321L167.96 76.0794C169.169 73.0398 170.231 71.5644 172.119 70.1246C173.357 69.2003 175.245 68.1515 177.575 66.9072C177.575 68.7026 177.722 70.3735 178.43 71.9555C179.61 74.4974 182.352 76.7549 187.455 79.0835L189.578 80.0434L191.171 78.7635C198.042 73.2176 198.632 64.4898 197.128 56.4197C203.852 62.0545 207.952 67.2094 211.373 73.2353L213.968 77.8392L216.416 73.1998C220.014 66.3029 224.231 63.5832 234.082 59.0505C233.403 61.4679 232.696 63.9032 232.489 66.3918C232.165 70.2135 233.108 74.1952 237.178 78.177L241.004 81.8921L242.074 77.5726C244.168 69.1292 248.403 65.3786 255.555 61.6457C250.925 69.7336 251.361 77.9281 255.416 86.3537H128.264C131.301 81.4121 133.159 75.9195 130.564 69.3425C136.05 70.6934 141.712 73.502 143.157 78.4436L144.75 83.8296L148.23 78.7813C151.769 73.662 147.817 67.2628 143.039 60.9702C141.093 58.3572 138.91 55.7975 136.875 53.3445Z" fill="#004E35"/>
<path d="M-4.12455 53.3445C-0.467522 55.8331 3.219 58.4461 6.6401 61.0946C13.7772 66.5517 19.7346 72.1155 21.8286 76.1861L24.6893 81.7321L26.9602 76.0794C28.1694 73.0398 29.2311 71.5644 31.1186 70.1246C32.3573 69.2003 34.2448 68.1515 36.5747 66.9072C36.5747 68.7026 36.7221 70.3735 37.4299 71.9555C38.6096 74.4974 41.3524 76.7549 46.4546 79.0835L48.578 80.0434L50.1706 78.7635C57.0423 73.2176 57.6321 64.4898 56.128 56.4197C62.8522 62.0545 66.9516 67.2094 70.3727 73.2353L72.968 77.8392L75.4159 73.1998C79.0139 66.3029 83.2313 63.5832 93.0817 59.0505C92.4034 61.4679 91.6956 63.9032 91.4891 66.3918C91.1647 70.2135 92.1085 74.1952 96.1784 78.177L100.004 81.8921L101.074 77.5726C103.168 69.1292 107.403 65.3786 114.555 61.6457C109.925 69.7336 110.361 77.9281 114.416 86.3537H-12.7363C-9.69857 81.4121 -7.84056 75.9195 -10.4359 69.3425C-4.95033 70.6934 0.712173 73.502 2.15729 78.4436L3.74987 83.8296L7.22994 78.7813C10.769 73.662 6.81705 67.2628 2.03931 60.9702C0.0928268 58.3572 -2.08959 55.7975 -4.12455 53.3445Z" fill="#004E35"/>
<path d="M705.125 53.3445C701.468 55.8331 697.781 58.4461 694.36 61.0946C687.223 66.5517 681.265 72.1155 679.171 76.1861L676.311 81.7321L674.04 76.0794C672.831 73.0398 671.769 71.5644 669.881 70.1246C668.643 69.2003 666.755 68.1515 664.425 66.9072C664.425 68.7026 664.278 70.3735 663.57 71.9555C662.39 74.4974 659.648 76.7549 654.545 79.0835L652.422 80.0434L650.829 78.7635C643.958 73.2176 643.368 64.4898 644.872 56.4197C638.148 62.0545 634.048 67.2094 630.627 73.2353L628.032 77.8392L625.584 73.1998C621.986 66.3029 617.769 63.5832 607.918 59.0505C608.597 61.4679 609.304 63.9032 609.511 66.3918C609.835 70.2135 608.892 74.1952 604.822 78.177L600.996 81.8921L599.926 77.5726C597.832 69.1292 593.597 65.3786 586.445 61.6457C591.075 69.7336 590.639 77.9281 586.584 86.3537H713.736C710.699 81.4121 708.841 75.9195 711.436 69.3425C705.95 70.6934 700.288 73.502 698.843 78.4436L697.25 83.8296L693.77 78.7813C690.231 73.662 694.183 67.2628 698.961 60.9702C700.907 58.3572 703.09 55.7975 705.125 53.3445Z" fill="#004E35"/>
<path d="M818.125 55.2146C814.468 57.7032 810.781 60.3162 807.36 62.9648C800.223 68.4219 794.265 73.9856 792.171 78.0562L789.311 83.6022L787.04 77.9496C785.831 74.9099 784.769 73.4346 782.881 71.9947C781.643 71.0704 779.755 70.0216 777.425 68.7774C777.425 70.5727 777.278 72.2436 776.57 73.8256C775.39 76.3675 772.648 78.625 767.545 80.9536L765.422 81.9135L763.829 80.6337C756.958 75.0877 756.368 66.3599 757.872 58.2898C751.148 63.9246 747.048 69.0796 743.627 75.1055L741.032 79.7093L738.584 75.0699C734.986 68.173 730.769 65.4533 720.918 60.9206C721.597 63.3381 722.304 65.7733 722.511 68.2619C722.835 72.0836 721.892 76.0653 717.822 80.0471L713.996 83.7622L712.926 79.4427C710.832 70.9993 706.597 67.2487 699.445 63.5158C704.075 71.6037 703.639 79.7982 699.584 88.2238H826.736C823.699 83.2822 821.841 77.7896 824.436 71.2126C818.95 72.5636 813.288 75.3721 811.843 80.3137L810.25 85.6997L806.77 80.6514C803.231 75.5321 807.183 69.1329 811.961 62.8403C813.907 60.2273 816.09 57.6676 818.125 55.2146Z" fill="#004E35"/>
<path d="M907.875 56.4613C911.532 58.9499 915.219 61.5629 918.64 64.2115C925.777 69.6686 931.735 75.2323 933.829 79.3029L936.689 84.8489L938.96 79.1963C940.169 76.1566 941.231 74.6813 943.119 73.2414C944.357 72.3171 946.245 71.2684 948.575 70.0241C948.575 71.8194 948.722 73.4903 949.43 75.0723C950.61 77.6142 953.352 79.8717 958.455 82.2003L960.578 83.1602L962.171 81.8804C969.042 76.3344 969.632 67.6066 968.128 59.5365C974.852 65.1713 978.952 70.3263 982.373 76.3522L984.968 80.956L987.416 76.3166C991.014 69.4197 995.231 66.7 1005.08 62.1673C1004.4 64.5848 1003.7 67.02 1003.49 69.5086C1003.16 73.3303 1004.11 77.3121 1008.18 81.2938L1012 85.0089L1013.07 80.6894C1015.17 72.246 1019.4 68.4954 1026.55 64.7625C1021.92 72.8504 1022.36 81.0449 1026.42 89.4705H899.264C902.301 84.5289 904.159 79.0363 901.564 72.4593C907.05 73.8103 912.712 76.6188 914.157 81.5604L915.75 86.9464L919.23 81.8981C922.769 76.7788 918.817 70.3796 914.039 64.087C912.093 61.474 909.91 58.9143 907.875 56.4613Z" fill="#004E35"/>
</svg>
