<svg width="1521" height="100" viewBox="0 0 1521 100" fill="none" xmlns="http://www.w3.org/2000/svg">
<path d="M1419.23 16.4741C1409.2 17.3042 1400.49 20.9962 1394 25.7156C1387.97 30.0884 1384.01 35.3322 1382.78 39.5095C1403.33 44.3977 1423.53 46.7263 1445.14 40.3982C1443.3 32.1859 1437.75 21.5882 1419.23 16.4741ZM1475.85 25.9289C1461.29 29.1996 1456.84 35.6522 1455.23 40.8604C1472.4 44.8066 1488.6 43.3668 1504.98 40.2383C1503.81 37.7497 1500.79 34.639 1496.29 31.9904C1491.11 28.933 1484.04 26.4978 1475.85 25.9289ZM1480.35 46.4064C1478.8 46.4419 1477.22 46.4597 1475.65 46.4419L1466.9 72.0743C1468.25 72.8564 1469.42 73.5852 1470.44 74.3673C1471.61 75.2561 1472.55 76.216 1473.36 77.3181C1474.71 75.7005 1476.32 74.0296 1478.16 72.3232L1480.35 46.4064ZM1412.71 47.3129C1411.37 52.9833 1410.81 58.636 1411.25 64.2886C1417.57 67.4527 1421.75 70.2967 1424.88 74.474C1425.55 73.4608 1426.28 72.4476 1427.01 71.4521C1423.62 63.702 1421.02 55.7741 1420.32 47.4018C1417.77 47.4551 1415.23 47.4196 1412.71 47.3129ZM1501.29 59.5781C1497.67 62.0667 1494.01 64.6797 1490.62 67.3282C1483.54 72.7853 1477.63 78.3491 1475.56 82.4197L1472.72 87.9657L1470.47 82.313C1469.27 79.2734 1468.22 77.798 1466.35 76.3582C1465.12 75.4339 1463.25 74.3851 1460.94 73.1408C1460.94 74.9362 1460.79 76.6071 1460.09 78.1891C1458.92 80.731 1456.2 82.9885 1451.14 85.3171L1449.03 86.277L1447.45 84.9971C1440.64 79.4512 1440.06 70.7234 1441.55 62.6532C1434.88 68.2881 1430.82 73.443 1427.42 79.4689L1424.85 84.0728L1422.42 79.4334C1418.85 72.5365 1414.67 69.8168 1404.91 65.284C1405.58 67.7015 1406.28 70.1368 1406.48 72.6253C1406.81 76.4471 1405.87 80.4288 1401.84 84.4105L1398.04 88.1256L1396.98 83.8062C1394.9 75.3628 1390.71 71.6121 1383.61 67.8793C1388.2 75.9671 1387.77 84.1617 1383.75 92.5873H1509.83C1506.82 87.6457 1504.98 82.153 1507.55 75.5761C1502.11 76.927 1496.5 79.7356 1495.06 84.6772L1493.48 90.0632L1490.03 85.0149C1486.52 79.8955 1490.44 73.4963 1495.18 67.2038C1497.11 64.5908 1499.27 62.0311 1501.29 59.5781Z" fill="#004E35"/>
<path d="M1299.26 18.9675C1289.23 19.7976 1280.51 23.4896 1274.03 28.209C1267.99 32.5818 1264.04 37.8256 1262.8 42.0029C1283.35 46.8912 1303.56 49.2198 1325.17 42.8917C1323.33 34.6793 1317.77 24.0816 1299.26 18.9675ZM1355.87 28.4224C1341.31 31.6931 1336.87 38.1456 1335.26 43.3538C1352.42 47.3 1368.62 45.8602 1385 42.7317C1383.83 40.2431 1380.82 37.1324 1376.31 34.4838C1371.14 31.4264 1364.06 28.9912 1355.87 28.4224ZM1360.38 48.8998C1358.83 48.9353 1357.25 48.9531 1355.67 48.9353L1346.92 74.5677C1348.27 75.3498 1349.44 76.0786 1350.46 76.8608C1351.63 77.7495 1352.57 78.7094 1353.39 79.8115C1354.73 78.1939 1356.34 76.523 1358.18 74.8166L1360.38 48.8998ZM1292.74 49.8064C1291.39 55.4768 1290.84 61.1294 1291.27 66.782C1297.59 69.9461 1301.77 72.7901 1304.9 76.9674C1305.57 75.9542 1306.31 74.941 1307.04 73.9456C1303.64 66.1954 1301.04 58.2675 1300.34 49.8952C1297.8 49.9486 1295.25 49.913 1292.74 49.8064ZM1381.31 62.0715C1377.69 64.5601 1374.03 67.1731 1370.64 69.8216C1363.56 75.2787 1357.66 80.8425 1355.58 84.9131L1352.74 90.4591L1350.49 84.8064C1349.29 81.7668 1348.24 80.2914 1346.37 78.8516C1345.14 77.9273 1343.27 76.8785 1340.96 75.6342C1340.96 77.4296 1340.81 79.1005 1340.11 80.6825C1338.94 83.2244 1336.22 85.4819 1331.16 87.8105L1329.06 88.7704L1327.48 87.4905C1320.66 81.9446 1320.08 73.2168 1321.57 65.1467C1314.9 70.7815 1310.84 75.9364 1307.45 81.9623L1304.87 86.5662L1302.45 81.9268C1298.88 75.0299 1294.7 72.3102 1284.93 67.7774C1285.6 70.1949 1286.3 72.6302 1286.51 75.1188C1286.83 78.9405 1285.89 82.9222 1281.86 86.9039L1278.07 90.619L1277 86.2996C1274.93 77.8562 1270.73 74.1055 1263.64 70.3727C1268.23 78.4606 1267.8 86.6551 1263.77 95.0807H1389.85C1386.84 90.1391 1385 84.6464 1387.57 78.0695C1382.13 79.4204 1376.52 82.229 1375.09 87.1706L1373.51 92.5566L1370.06 87.5083C1366.55 82.389 1370.47 75.9898 1375.2 69.6972C1377.13 67.0842 1379.3 64.5245 1381.31 62.0715Z" fill="#004E35"/>
<path d="M820.333 10.2405C810.302 11.0706 801.588 14.7626 795.101 19.482C789.066 23.8548 785.112 29.0986 783.875 33.2758C804.424 38.1641 824.631 40.4927 846.242 34.1646C844.4 25.9523 838.843 15.3545 820.333 10.2405ZM876.947 19.6953C862.384 22.966 857.939 29.4185 856.331 34.6268C873.497 38.5729 889.697 37.1331 906.074 34.0046C904.904 31.516 901.892 28.4053 897.388 25.7568C892.212 22.6994 885.136 20.2641 876.947 19.6953ZM881.451 40.1727C879.901 40.2083 878.322 40.2261 876.743 40.2083L867.999 65.8407C869.344 66.6228 870.514 67.3516 871.537 68.1337C872.707 69.0225 873.643 69.9824 874.462 71.0844C875.807 69.4669 877.415 67.796 879.258 66.0895L881.451 40.1727ZM813.811 41.0793C812.466 46.7497 811.91 52.4023 812.349 58.055C818.666 61.219 822.847 64.0631 825.976 68.2404C826.649 67.2271 827.38 66.2139 828.111 65.2185C824.719 57.4684 822.116 49.5405 821.415 41.1682C818.87 41.2215 816.326 41.186 813.811 41.0793ZM902.389 53.3444C898.763 55.833 895.107 58.446 891.715 61.0946C884.638 66.5517 878.731 72.1154 876.655 76.186L873.818 81.732L871.567 76.0794C870.368 73.0398 869.315 71.5644 867.443 70.1246C866.215 69.2002 864.344 68.1515 862.033 66.9072C862.033 68.7025 861.887 70.3734 861.185 71.9554C860.016 74.4974 857.296 76.7548 852.237 79.0834L850.131 80.0433L848.552 78.7635C841.739 73.2175 841.154 64.4897 842.645 56.4196C835.978 62.0545 831.913 67.2094 828.521 73.2353L825.947 77.8392L823.52 73.1997C819.952 66.3028 815.771 63.5832 806.003 59.0504C806.676 61.4679 807.378 63.9031 807.582 66.3917C807.904 70.2134 806.968 74.1952 802.933 78.1769L799.14 81.892L798.078 77.5725C796.002 69.1291 791.803 65.3785 784.711 61.6456C789.303 69.7335 788.87 77.928 784.849 86.3537H910.928C907.916 81.412 906.074 75.9194 908.647 69.3424C903.208 70.6934 897.593 73.5019 896.16 78.4435L894.581 83.8295L891.13 78.7813C887.621 73.6619 891.54 67.2627 896.277 60.9702C898.207 58.3571 900.371 55.7975 902.389 53.3444Z" fill="#004E35"/>
<path d="M297.782 10.2405C287.751 11.0706 279.037 14.7626 272.551 19.482C266.515 23.8548 262.561 29.0986 261.324 33.2758C281.873 38.1641 302.081 40.4927 323.691 34.1646C321.849 25.9523 316.293 15.3545 297.782 10.2405ZM354.397 19.6953C339.834 22.966 335.389 29.4185 333.78 34.6268C350.946 38.5729 367.147 37.1331 383.523 34.0046C382.353 31.516 379.341 28.4053 374.838 25.7568C369.662 22.6994 362.585 20.2641 354.397 19.6953ZM358.9 40.1727C357.35 40.2083 355.771 40.2261 354.192 40.2083L345.448 65.8407C346.793 66.6228 347.963 67.3516 348.987 68.1337C350.156 69.0225 351.092 69.9824 351.911 71.0844C353.256 69.4669 354.865 67.796 356.707 66.0895L358.9 40.1727ZM291.261 41.0793C289.915 46.7497 289.36 52.4023 289.798 58.055C296.115 61.219 300.297 64.0631 303.426 68.2404C304.098 67.2271 304.829 66.2139 305.56 65.2185C302.168 57.4684 299.566 49.5405 298.864 41.1682C296.32 41.2215 293.775 41.186 291.261 41.0793ZM379.838 53.3444C376.212 55.833 372.557 58.446 369.164 61.0946C362.088 66.5517 356.18 72.1154 354.104 76.186L351.268 81.732L349.016 76.0794C347.817 73.0398 346.764 71.5644 344.893 70.1246C343.664 69.2002 341.793 68.1515 339.483 66.9072C339.483 68.7025 339.336 70.3734 338.635 71.9554C337.465 74.4974 334.745 76.7548 329.686 79.0834L327.581 80.0433L326.001 78.7635C319.188 73.2175 318.603 64.4897 320.094 56.4196C313.427 62.0545 309.362 67.2094 305.97 73.2353L303.396 77.8392L300.969 73.1997C297.402 66.3028 293.22 63.5832 283.453 59.0504C284.125 61.4679 284.827 63.9031 285.032 66.3917C285.353 70.2134 284.418 74.1952 280.382 78.1769L276.589 81.892L275.528 77.5725C273.451 69.1291 269.252 65.3785 262.161 61.6456C266.752 69.7335 266.319 77.928 262.298 86.3537H388.377C385.365 81.412 383.523 75.9194 386.096 69.3424C380.657 70.6934 375.042 73.5019 373.609 78.4435L372.03 83.8295L368.58 78.7813C365.07 73.6619 368.989 67.2627 373.726 60.9702C375.656 58.3571 377.82 55.7975 379.838 53.3444Z" fill="#004E35"/>
<path d="M439.674 22.8122C425.111 26.0829 420.666 32.5354 419.058 37.7437C436.223 41.6898 452.424 40.25 468.8 37.1215C467.631 34.6329 464.618 31.5222 460.115 28.8736C454.939 25.8163 447.862 23.381 439.674 22.8122ZM444.177 43.2896C442.628 43.3252 441.048 43.343 439.469 43.3252L430.726 68.9575C432.071 69.7397 433.24 70.4685 434.264 71.2506C435.434 72.1394 436.369 73.0992 437.188 74.2013C438.534 72.5837 440.142 70.9128 441.984 69.2064L444.177 43.2896ZM465.116 56.4613C461.489 58.9499 457.834 61.5629 454.442 64.2115C447.365 69.6686 441.458 75.2323 439.382 79.3029L436.545 84.8489L434.293 79.1963C433.094 76.1566 432.042 74.6813 430.17 73.2414C428.942 72.3171 427.07 71.2684 424.76 70.0241C424.76 71.8194 424.614 73.4903 423.912 75.0723C422.742 77.6142 420.023 79.8717 414.963 82.2003L412.858 83.1602L411.279 81.8804C404.465 76.3344 403.88 67.6066 405.372 59.5365C398.704 65.1713 394.639 70.3263 391.247 76.3522L388.674 80.956L386.247 76.3166C382.679 69.4197 378.497 66.7 368.73 62.1673C369.403 64.5848 370.104 67.02 370.309 69.5086C370.631 73.3303 369.695 77.3121 365.659 81.2938L361.867 85.0089L360.805 80.6894C358.729 72.246 354.529 68.4954 347.438 64.7625C352.029 72.8504 351.596 81.0449 347.575 89.4705H473.655C470.643 84.5289 468.8 79.0363 471.374 72.4593C465.934 73.8103 460.32 76.6188 458.887 81.5604L457.308 86.9464L453.857 81.8981C450.348 76.7788 454.266 70.3796 459.004 64.087C460.934 61.474 463.098 58.9143 465.116 56.4613Z" fill="#004E35"/>
<path d="M1266.29 57.7079C1262.67 60.1965 1259.01 62.8095 1255.62 65.458C1248.54 70.9151 1242.63 76.4789 1240.56 80.5495L1237.72 86.0955L1235.47 80.4428C1234.27 77.4032 1233.22 75.9278 1231.35 74.488C1230.12 73.5637 1228.25 72.5149 1225.94 71.2706C1225.94 73.066 1225.79 74.7369 1225.09 76.3189C1223.92 78.8608 1221.2 81.1183 1216.14 83.4469L1214.03 84.4068L1212.45 83.1269C1205.64 77.581 1205.06 68.8532 1206.55 60.7831C1199.88 66.4179 1195.82 71.5728 1192.42 77.5988L1189.85 82.2026L1187.42 77.5632C1183.85 70.6663 1179.67 67.9466 1169.91 63.4139C1170.58 65.8313 1171.28 68.2666 1171.48 70.7552C1171.81 74.5769 1170.87 78.5586 1166.84 82.5404L1163.04 86.2555L1161.98 81.936C1159.9 73.4926 1155.71 69.742 1148.61 66.0091C1153.2 74.097 1152.77 82.2915 1148.75 90.7171H1274.83C1271.82 85.7755 1269.98 80.2829 1272.55 73.7059C1267.11 75.0568 1261.5 77.8654 1260.06 82.807L1258.48 88.193L1255.03 83.1447C1251.52 78.0254 1255.44 71.6262 1260.18 65.3336C1262.11 62.7206 1264.27 60.1609 1266.29 57.7079Z" fill="#004E35"/>
<path d="M1037.99 53.3444C1041.61 55.833 1045.27 58.446 1048.66 61.0945C1055.74 66.5516 1061.64 72.1154 1063.72 76.186L1066.56 81.7319L1068.81 76.0793C1070.01 73.0397 1071.06 71.5643 1072.93 70.1245C1074.16 69.2002 1076.03 68.1514 1078.34 66.9071C1078.34 68.7025 1078.49 70.3734 1079.19 71.9554C1080.36 74.4973 1083.08 76.7548 1088.14 79.0834L1090.24 80.0433L1091.82 78.7634C1098.64 73.2174 1099.22 64.4896 1097.73 56.4195C1104.4 62.0544 1108.46 67.2093 1111.85 73.2352L1114.43 77.8391L1116.85 73.1997C1120.42 66.3028 1124.6 63.5831 1134.37 59.0503C1133.7 61.4678 1133 63.9031 1132.79 66.3916C1132.47 70.2134 1133.41 74.1951 1137.44 78.1768L1141.24 81.8919L1142.3 77.5725C1144.37 69.1291 1148.57 65.3784 1155.66 61.6456C1151.07 69.7334 1151.51 77.928 1155.53 86.3536H1029.45C1032.46 81.412 1034.3 75.9193 1031.73 69.3424C1037.17 70.6933 1042.78 73.5019 1044.21 78.4435L1045.79 83.8295L1049.24 78.7812C1052.75 73.6618 1048.84 67.2626 1044.1 60.9701C1042.17 58.3571 1040 55.7974 1037.99 53.3444Z" fill="#004E35"/>
<path d="M480.732 55.8378C484.358 58.3264 488.014 60.9394 491.406 63.5879C498.483 69.045 504.39 74.6088 506.466 78.6794L509.303 84.2254L511.554 78.5727C512.753 75.5331 513.806 74.0577 515.678 72.6179C516.906 71.6936 518.778 70.6448 521.088 69.4005C521.088 71.1959 521.234 72.8668 521.936 74.4488C523.105 76.9907 525.825 79.2482 530.884 81.5768L532.99 82.5367L534.569 81.2568C541.383 75.7109 541.967 66.9831 540.476 58.9129C547.143 64.5478 551.208 69.7027 554.6 75.7286L557.174 80.3325L559.601 75.6931C563.169 68.7962 567.351 66.0765 577.118 61.5437C576.445 63.9612 575.743 66.3965 575.539 68.885C575.217 72.7068 576.153 76.6885 580.188 80.6702L583.981 84.3853L585.043 80.0659C587.119 71.6225 591.318 67.8718 598.41 64.139C593.819 72.2268 594.251 80.4214 598.272 88.847H472.193C475.205 83.9054 477.047 78.4127 474.474 71.8358C479.913 73.1867 485.528 75.9953 486.961 80.9369L488.54 86.3229L491.991 81.2746C495.5 76.1553 491.581 69.756 486.844 63.4635C484.914 60.8505 482.75 58.2908 480.732 55.8378Z" fill="#004E35"/>
<path d="M151.533 53.3444C155.159 55.833 158.814 58.446 162.207 61.0945C169.283 66.5516 175.191 72.1154 177.267 76.186L180.103 81.7319L182.355 76.0793C183.554 73.0397 184.607 71.5643 186.479 70.1245C187.707 69.2002 189.578 68.1514 191.888 66.9071C191.888 68.7025 192.035 70.3734 192.737 71.9554C193.906 74.4973 196.626 76.7548 201.685 79.0834L203.79 80.0433L205.37 78.7634C212.183 73.2174 212.768 64.4896 211.277 56.4195C217.944 62.0544 222.009 67.2093 225.401 73.2352L227.975 77.8391L230.402 73.1997C233.97 66.3028 238.151 63.5831 247.919 59.0503C247.246 61.4678 246.544 63.9031 246.339 66.3916C246.018 70.2134 246.953 74.1951 250.989 78.1768L254.782 81.8919L255.843 77.5725C257.92 69.1291 262.119 65.3784 269.211 61.6456C264.619 69.7334 265.052 77.928 269.073 86.3536H142.994C146.006 81.412 147.848 75.9193 145.275 69.3424C150.714 70.6933 156.329 73.5019 157.762 78.4435L159.341 83.8295L162.791 78.7812C166.301 73.6618 162.382 67.2626 157.645 60.9701C155.715 58.3571 153.551 55.7974 151.533 53.3444Z" fill="#004E35"/>
<path d="M18.7164 53.3444C22.3426 55.833 25.998 58.446 29.3902 61.0945C36.4671 66.5516 42.3742 72.1154 44.4505 76.186L47.2871 81.7319L49.5388 76.0793C50.7378 73.0397 51.7905 71.5643 53.6621 70.1245C54.8903 69.2002 56.7619 68.1514 59.0721 66.9071C59.0721 68.7025 59.2183 70.3734 59.9201 71.9554C61.0899 74.4973 63.8095 76.7548 68.8686 79.0834L70.9741 80.0433L72.5532 78.7634C79.3669 73.2174 79.9518 64.4896 78.4604 56.4195C85.1278 62.0544 89.1926 67.2093 92.5848 73.2352L95.1582 77.8391L97.5854 73.1997C101.153 66.3028 105.335 63.5831 115.102 59.0503C114.43 61.4678 113.728 63.9031 113.523 66.3916C113.201 70.2134 114.137 74.1951 118.173 78.1768L121.966 81.8919L123.027 77.5725C125.103 69.1291 129.303 65.3784 136.394 61.6456C131.803 69.7334 132.236 77.928 136.257 86.3536H10.1774C13.1895 81.412 15.0318 75.9193 12.4584 69.3424C17.8976 70.6933 23.5123 73.5019 24.9452 78.4435L26.5244 83.8295L29.9751 78.7812C33.4843 73.6618 29.5657 67.2626 24.8283 60.9701C22.8982 58.3571 20.7342 55.7974 18.7164 53.3444Z" fill="#004E35"/>
<path d="M714.987 53.3444C711.361 55.833 707.705 58.446 704.313 61.0945C697.236 66.5516 691.329 72.1154 689.253 76.186L686.416 81.7319L684.164 76.0793C682.965 73.0397 681.913 71.5643 680.041 70.1245C678.813 69.2002 676.941 68.1514 674.631 66.9071C674.631 68.7025 674.485 70.3734 673.783 71.9554C672.613 74.4973 669.894 76.7548 664.835 79.0834L662.729 80.0433L661.15 78.7634C654.336 73.2174 653.751 64.4896 655.243 56.4195C648.575 62.0544 644.511 67.2093 641.118 73.2352L638.545 77.8391L636.118 73.1997C632.55 66.3028 628.368 63.5831 618.601 59.0503C619.274 61.4678 619.975 63.9031 620.18 66.3916C620.502 70.2134 619.566 74.1951 615.53 78.1768L611.738 81.8919L610.676 77.5725C608.6 69.1291 604.4 65.3784 597.309 61.6456C601.9 69.7334 601.467 77.928 597.446 86.3536H723.526C720.514 81.412 718.671 75.9193 721.245 69.3424C715.805 70.6933 710.191 73.5019 708.758 78.4435L707.179 83.8295L703.728 78.7812C700.219 73.6618 704.137 67.2626 708.875 60.9701C710.805 58.3571 712.969 55.7974 714.987 53.3444Z" fill="#004E35"/>
<path d="M827.034 55.2145C823.407 57.7031 819.752 60.3161 816.36 62.9646C809.283 68.4217 803.376 73.9855 801.3 78.0561L798.463 83.6021L796.211 77.9494C795.012 74.9098 793.959 73.4344 792.088 71.9946C790.86 71.0703 788.988 70.0215 786.678 68.7772C786.678 70.5726 786.532 72.2435 785.83 73.8255C784.66 76.3674 781.941 78.6249 776.881 80.9535L774.776 81.9134L773.197 80.6335C766.383 75.0876 765.798 66.3598 767.29 58.2897C760.622 63.9245 756.557 69.0794 753.165 75.1053L750.592 79.7092L748.165 75.0698C744.597 68.1729 740.415 65.4532 730.648 60.9205C731.32 63.3379 732.022 65.7732 732.227 68.2618C732.549 72.0835 731.613 76.0652 727.577 80.047L723.784 83.762L722.723 79.4426C720.647 70.9992 716.447 67.2485 709.356 63.5157C713.947 71.6036 713.514 79.7981 709.493 88.2237H835.573C832.561 83.2821 830.718 77.7895 833.292 71.2125C827.852 72.5634 822.238 75.372 820.805 80.3136L819.226 85.6996L815.775 80.6513C812.266 75.532 816.184 69.1328 820.922 62.8402C822.852 60.2272 825.016 57.6675 827.034 55.2145Z" fill="#004E35"/>
<path d="M916.025 56.4613C919.651 58.9499 923.307 61.5629 926.699 64.2115C933.776 69.6686 939.683 75.2323 941.759 79.3029L944.596 84.8489L946.847 79.1963C948.046 76.1566 949.099 74.6813 950.971 73.2414C952.199 72.3171 954.07 71.2684 956.381 70.0241C956.381 71.8194 956.527 73.4903 957.229 75.0723C958.398 77.6142 961.118 79.8717 966.177 82.2003L968.283 83.1602L969.862 81.8804C976.675 76.3344 977.26 67.6066 975.769 59.5365C982.436 65.1713 986.501 70.3263 989.893 76.3522L992.467 80.956L994.894 76.3166C998.462 69.4197 1002.64 66.7 1012.41 62.1673C1011.74 64.5848 1011.04 67.02 1010.83 69.5086C1010.51 73.3303 1011.45 77.3121 1015.48 81.2938L1019.27 85.0089L1020.34 80.6894C1022.41 72.246 1026.61 68.4954 1033.7 64.7625C1029.11 72.8504 1029.54 81.0449 1033.57 89.4705H907.486C910.498 84.5289 912.34 79.0363 909.767 72.4593C915.206 73.8103 920.821 76.6188 922.254 81.5604L923.833 86.9464L927.284 81.8981C930.793 76.7788 926.874 70.3796 922.137 64.087C920.207 61.474 918.043 58.9143 916.025 56.4613Z" fill="#004E35"/>
</svg>
