<svg width="92" height="92" viewBox="0 0 92 92" fill="none" xmlns="http://www.w3.org/2000/svg">
<path d="M46 92C71.4051 92 92 71.4051 92 46C92 20.5949 71.4051 0 46 0C20.5949 0 0 20.5949 0 46C0 71.4051 20.5949 92 46 92Z" fill="#FAC202"/>
<path d="M36.7329 72.5096C59.2218 72.5096 71.4885 53.9051 71.4885 37.754C71.4885 37.2088 71.4885 36.7318 71.4203 36.1866C73.8055 34.4829 75.85 32.3022 77.4855 29.8488C75.3048 30.8029 72.9196 31.4844 70.4663 31.757C72.9877 30.2577 74.8959 27.8725 75.85 25.0103C73.4648 26.4414 70.8752 27.3955 68.0811 28.0088C65.8322 25.6236 62.6974 24.1244 59.1537 24.1244C52.407 24.1244 46.9552 29.5762 46.9552 36.3229C46.9552 37.277 47.0914 38.2311 47.2959 39.117C37.1418 38.6399 28.1463 33.7333 22.1492 26.3733C21.127 28.1451 20.5137 30.2577 20.5137 32.5066C20.5137 36.7318 22.6944 40.4799 25.9655 42.6607C23.9892 42.5925 22.0811 42.0474 20.4455 41.1614C20.4455 41.2296 20.4455 41.2296 20.4455 41.2977C20.4455 47.2266 24.6707 52.1333 30.2589 53.2918C29.2366 53.5644 28.1463 53.7007 27.0559 53.7007C26.2381 53.7007 25.4885 53.6325 24.7389 53.4962C26.3063 58.3348 30.804 61.8785 36.1196 61.9466C31.9626 65.2177 26.647 67.194 20.9226 67.194C19.9685 67.194 18.9463 67.1259 17.9922 67.0577C23.3759 70.4651 29.7818 72.5096 36.7329 72.5096Z" fill="#F9FFF8"/>
</svg>
