<svg width="92" height="92" viewBox="0 0 92 92" fill="none" xmlns="http://www.w3.org/2000/svg">
<path d="M92 46C92 20.5807 71.4193 0 46 0C20.5807 0 0 20.5807 0 46C0 68.9659 16.8326 87.9793 38.8444 91.4548V59.2889H27.123V46H38.8444V35.8459C38.8444 24.3289 45.6593 17.9911 56.1541 17.9911C61.197 17.9911 66.4444 18.877 66.4444 18.877V30.1896H60.6519C54.9274 30.1896 53.1556 33.7333 53.1556 37.3452V46H65.8993L63.8548 59.2889H53.1556V91.4548C75.1674 87.9793 92 68.9659 92 46Z" fill="#C63131"/>
<path d="M63.9211 59.2889L65.9655 46H53.1537V37.3452C53.1537 33.7333 54.9255 30.1896 60.65 30.1896H66.4426V18.877C66.4426 18.877 61.1952 17.9911 56.1522 17.9911C45.6574 17.9911 38.8426 24.3289 38.8426 35.8459V46H27.1211V59.2889H38.8426V91.4548C41.1596 91.7955 43.6129 92 45.9981 92C48.4515 92 50.8366 91.7955 53.1537 91.4548V59.2889H63.9211Z" fill="#F9FFF8"/>
</svg>
