<svg width="21" height="20" viewBox="0 0 21 20" fill="none" xmlns="http://www.w3.org/2000/svg">
<g clip-path="url(#clip0_615_24577)">
<path d="M19.8089 2.6275C17.6517 0.988755 14.3262 0.0100098 10.9124 0.0100098C6.69117 0.0100098 3.24639 1.48375 1.46304 4.05374C0.625379 5.25998 0.159487 6.68997 0.0780076 8.30122C0.00584993 9.73621 0.241947 11.3237 0.778905 13.0312C2.64944 7.47622 7.83855 3.12749 13.8048 3.12749C13.8048 3.12749 8.21753 4.59624 4.69276 9.14746C3.88852 10.1795 3.24193 11.3249 2.77423 12.5462C1.77525 14.907 1.25705 17.4419 1.25003 20.0024H3.75003C3.75003 20.0024 3.37778 17.6149 4.04669 14.8699C5.0223 15.0092 6.00633 15.0831 6.99222 15.0912C9.29097 15.0912 10.9263 14.5937 12.141 13.5262C13.2292 12.5699 13.8321 11.2837 14.4702 9.92371C15.4445 7.84497 16.5484 5.48998 19.738 3.67124C19.828 3.62 19.904 3.54728 19.9591 3.45959C20.0141 3.3719 20.0467 3.27198 20.0537 3.16879C20.0607 3.0656 20.042 2.96236 19.9993 2.86832C19.9566 2.77429 19.8912 2.6924 19.8089 2.63L19.8089 2.6275Z" fill="#F9FFF8"/>
</g>
<defs>
<clipPath id="clip0_615_24577">
<rect width="20" height="20" fill="white" transform="matrix(1 0 -0.00324578 0.999995 0.0649414 0)"/>
</clipPath>
</defs>
</svg>
